<?xml version="1.0" encoding="iso-8859-1"?>
<!-- Generator: Adobe Illustrator 19.0.0, SVG Export Plug-In . SVG Version: 6.00 Build 0)  -->
<svg xmlns="http://www.w3.org/2000/svg" xmlns:xlink="http://www.w3.org/1999/xlink" version="1.1" id="Layer_1" x="0px" y="0px" viewBox="0 0 512 512" style="enable-background:new 0 0 512 512;" xml:space="preserve">
<g>
	<g>
		<g>
			<circle cx="234.667" cy="192" r="21.333"/>
			<circle cx="128" cy="192" r="21.333"/>
			<path d="M394.667,128c0-5.896-4.771-10.667-10.667-10.667h-21.333v-10.667C362.667,83.146,343.531,64,320,64H213.333V53.333     c0-5.896-4.771-10.667-10.667-10.667H160c-5.896,0-10.667,4.771-10.667,10.667V64H128V53.333c0-5.896-4.771-10.667-10.667-10.667     H74.667C68.771,42.667,64,47.438,64,53.333V64H42.667C19.135,64,0,83.146,0,106.667v170.667C0,300.854,19.135,320,42.667,320H320     c23.531,0,42.667-19.146,42.667-42.667V160H384c5.896,0,10.667-4.771,10.667-10.667c52.938,0,96,43.063,96,96s-43.063,96-96,96     h-128H256h-74.667c-40.25,0-73.875,28.092-82.816,65.65c-7.724,3.21-13.184,10.805-13.184,19.684     c0,11.771,9.573,21.333,21.333,21.333c11.76,0,21.333-9.563,21.333-21.333c0-6.755-3.352-12.522-8.26-16.432     c7.307-27.302,32.018-47.568,61.594-47.568h15.072c-20.036,16.03-33.348,39.715-35.604,66.738     c-6.723,3.592-11.467,10.448-11.467,18.595c0,11.771,9.573,21.333,21.333,21.333c11.76,0,21.333-9.563,21.333-21.333     c0-7.495-4.111-13.777-9.967-17.583c3.552-37.887,35.169-67.75,73.967-67.75h10.667h128c64.698,0,117.333-52.646,117.333-117.333     S459.365,128,394.667,128z M320,266.667c0,5.896-4.771,10.667-10.667,10.667h-64c-2.833,0-5.542-1.125-7.542-3.125L219.583,256     h-76.5l-18.208,18.208c-2,2-4.708,3.125-7.542,3.125h-64c-5.896,0-10.667-4.771-10.667-10.667V117.333     c0-5.896,4.771-10.667,10.667-10.667h256c5.896,0,10.667,4.771,10.667,10.667V266.667z"/>
		</g>
	</g>
</g>
<g>
</g>
<g>
</g>
<g>
</g>
<g>
</g>
<g>
</g>
<g>
</g>
<g>
</g>
<g>
</g>
<g>
</g>
<g>
</g>
<g>
</g>
<g>
</g>
<g>
</g>
<g>
</g>
<g>
</g>
</svg>
