<?xml version="1.0" encoding="iso-8859-1"?>
<!-- Generator: Adobe Illustrator 19.0.0, SVG Export Plug-In . SVG Version: 6.00 Build 0)  -->
<svg xmlns="http://www.w3.org/2000/svg" xmlns:xlink="http://www.w3.org/1999/xlink" version="1.1" id="Layer_1" x="0px" y="0px" viewBox="0 0 512 512" style="enable-background:new 0 0 512 512;" xml:space="preserve">
<g>
	<g>
		<g>
			<path d="M501.333,245.328H448v-53.333c0-5.896-4.771-10.667-10.667-10.667c-5.896,0-10.667,4.771-10.667,10.667v53.333h-53.333     c-5.896,0-10.667,4.771-10.667,10.667c0,5.896,4.771,10.667,10.667,10.667h53.333v53.333c0,5.896,4.771,10.667,10.667,10.667     c5.896,0,10.667-4.771,10.667-10.667v-53.333h53.333c5.896,0,10.667-4.771,10.667-10.667     C512,250.099,507.229,245.328,501.333,245.328z"/>
			<path d="M117.333,127.995H10.667C4.771,127.995,0,132.766,0,138.661v234.667c0,5.896,4.771,10.667,10.667,10.667h106.667     c5.896,0,10.667-4.771,10.667-10.667V138.661C128,132.766,123.229,127.995,117.333,127.995z"/>
			<path d="M421.375,347.526c-10.042-5.844-16.042-16.135-16.042-27.531v-21.333c0-5.896-4.771-10.667-10.667-10.667h-21.333     c-17.646,0-32-14.354-32-32c0-17.646,14.354-32,32-32h21.333c5.896,0,10.667-4.771,10.667-10.667v-21.333     c0-11.396,6-21.688,16.042-27.531c3.271-1.906,5.292-5.417,5.292-9.219V31.995c0-3.563-1.792-6.896-4.75-8.875     c-2.938-1.958-6.729-2.333-10.021-0.969l-256,106.667c-3.979,1.656-6.563,5.542-6.563,9.844v234.667     c0,4.302,2.583,8.188,6.563,9.844l256,106.667c1.313,0.552,2.708,0.823,4.104,0.823c2.083,0,4.146-0.604,5.917-1.792     c2.958-1.979,4.75-5.313,4.75-8.875v-123.25C426.667,352.943,424.646,349.432,421.375,347.526z"/>
		</g>
	</g>
</g>
<g>
</g>
<g>
</g>
<g>
</g>
<g>
</g>
<g>
</g>
<g>
</g>
<g>
</g>
<g>
</g>
<g>
</g>
<g>
</g>
<g>
</g>
<g>
</g>
<g>
</g>
<g>
</g>
<g>
</g>
</svg>
