<?xml version="1.0" encoding="iso-8859-1"?>
<!-- Generator: Adobe Illustrator 19.0.0, SVG Export Plug-In . SVG Version: 6.00 Build 0)  -->
<svg xmlns="http://www.w3.org/2000/svg" xmlns:xlink="http://www.w3.org/1999/xlink" version="1.1" id="Layer_1" x="0px" y="0px" viewBox="0 0 469.333 469.333" style="enable-background:new 0 0 469.333 469.333;" xml:space="preserve">
<g>
	<g>
		<g>
			<path d="M426.667,0h-384C19.146,0,0,19.135,0,42.667v384c0,23.531,19.146,42.667,42.667,42.667h384     c23.521,0,42.667-19.135,42.667-42.667v-384C469.333,19.135,450.188,0,426.667,0z M234.667,42.667     C246.437,42.667,256,52.24,256,64c0,11.76-9.563,21.333-21.333,21.333S213.333,75.76,213.333,64     C213.333,52.24,222.896,42.667,234.667,42.667z M98.896,98.906c8.042-8.063,22.125-8.063,30.167,0     c8.313,8.313,8.313,21.854,0,30.167c-4.021,4.031-9.396,6.25-15.083,6.25s-11.063-2.219-15.083-6.25     C90.583,120.76,90.583,107.219,98.896,98.906z M64,256c-11.771,0-21.333-9.573-21.333-21.333S52.229,213.333,64,213.333     c11.771,0,21.333,9.573,21.333,21.333S75.771,256,64,256z M129.062,370.427c-4.021,4.031-9.396,6.25-15.083,6.25     s-11.063-2.219-15.083-6.25c-8.313-8.313-8.313-21.854,0-30.167c8.042-8.063,22.125-8.063,30.167,0     C137.375,348.573,137.375,362.115,129.062,370.427z M234.667,362.667c-70.583,0-128-57.417-128-128s57.417-128,128-128     s128,57.417,128,128S305.25,362.667,234.667,362.667z M370.438,370.427c-4.021,4.031-9.396,6.25-15.083,6.25     s-11.063-2.219-15.083-6.25c-8.313-8.313-8.313-21.854,0-30.167c8.042-8.063,22.125-8.063,30.167,0     C378.75,348.573,378.75,362.115,370.438,370.427z M370.438,129.073c-4.021,4.031-9.396,6.25-15.083,6.25     s-11.063-2.219-15.083-6.25c-8.313-8.313-8.313-21.854,0-30.167c8.042-8.063,22.125-8.063,30.167,0     C378.75,107.219,378.75,120.76,370.438,129.073z M405.333,256C393.563,256,384,246.427,384,234.667s9.563-21.333,21.333-21.333     s21.333,9.573,21.333,21.333S417.104,256,405.333,256z"/>
			<path d="M174.333,174.323c-8.313,8.323-8.313,21.854,0,30.177c4.021,4.031,9.396,6.25,15.083,6.25s11.063-2.219,15.083-6.25     c8.313-8.323,8.313-21.854,0-30.188C196.417,166.271,182.417,166.26,174.333,174.323z"/>
		</g>
	</g>
</g>
<g>
</g>
<g>
</g>
<g>
</g>
<g>
</g>
<g>
</g>
<g>
</g>
<g>
</g>
<g>
</g>
<g>
</g>
<g>
</g>
<g>
</g>
<g>
</g>
<g>
</g>
<g>
</g>
<g>
</g>
</svg>
