<?xml version="1.0" encoding="iso-8859-1"?>
<!-- Generator: Adobe Illustrator 19.0.0, SVG Export Plug-In . SVG Version: 6.00 Build 0)  -->
<svg xmlns="http://www.w3.org/2000/svg" xmlns:xlink="http://www.w3.org/1999/xlink" version="1.1" id="Layer_1" x="0px" y="0px" viewBox="0 0 512 512" style="enable-background:new 0 0 512 512;" xml:space="preserve">
<g>
	<g>
		<path d="M511.563,370.269c-1.644-136.094-113.406-242.271-255.768-242.271c-130.933,0-245.672,109.698-255.768,244.531    c-0.416,5.823,3.893,10.917,9.7,11.427c0.312,0.031,0.625,0.042,0.958,0.042c5.391,0,10.033-4.104,10.575-9.583    c9.034-88.823,85.554-161.083,170.588-161.083c97.211,0,170.526,68.781,170.526,160c0,5.896,4.767,10.667,10.658,10.667h127.894    c0.167,0.01,0.333,0,0.416,0c5.891,0,10.658-4.771,10.658-10.667C512,372.269,511.854,371.237,511.563,370.269z"/>
	</g>
</g>
<g>
</g>
<g>
</g>
<g>
</g>
<g>
</g>
<g>
</g>
<g>
</g>
<g>
</g>
<g>
</g>
<g>
</g>
<g>
</g>
<g>
</g>
<g>
</g>
<g>
</g>
<g>
</g>
<g>
</g>
</svg>
