<?xml version="1.0" encoding="iso-8859-1"?>
<!-- Generator: Adobe Illustrator 19.0.0, SVG Export Plug-In . SVG Version: 6.00 Build 0)  -->
<svg xmlns="http://www.w3.org/2000/svg" xmlns:xlink="http://www.w3.org/1999/xlink" version="1.1" id="Layer_1" x="0px" y="0px" viewBox="0 0 512 512" style="enable-background:new 0 0 512 512;" xml:space="preserve">
<g>
	<g>
		<g>
			<path d="M288,128h-64c-5.896,0-10.667,4.771-10.667,10.667v234.667c0,5.896,4.771,10.667,10.667,10.667h64     c5.896,0,10.667-4.771,10.667-10.667V138.667C298.667,132.771,293.896,128,288,128z"/>
			<path d="M394.667,320h-64c-5.896,0-10.667,4.771-10.667,10.667v42.667c0,5.896,4.771,10.667,10.667,10.667h64     c5.896,0,10.667-4.771,10.667-10.667v-42.667C405.333,324.771,400.563,320,394.667,320z"/>
			<path d="M501.333,320h-64c-5.896,0-10.667,4.771-10.667,10.667v42.667c0,5.896,4.771,10.667,10.667,10.667h64     c5.896,0,10.667-4.771,10.667-10.667v-42.667C512,324.771,507.229,320,501.333,320z"/>
			<path d="M181.333,192h-64c-5.896,0-10.667,4.771-10.667,10.667v170.667c0,5.896,4.771,10.667,10.667,10.667h64     c5.896,0,10.667-4.771,10.667-10.667V202.667C192,196.771,187.229,192,181.333,192z"/>
			<path d="M74.667,256h-64C4.771,256,0,260.771,0,266.667v106.667C0,379.229,4.771,384,10.667,384h64     c5.896,0,10.667-4.771,10.667-10.667V266.667C85.333,260.771,80.563,256,74.667,256z"/>
		</g>
	</g>
</g>
<g>
</g>
<g>
</g>
<g>
</g>
<g>
</g>
<g>
</g>
<g>
</g>
<g>
</g>
<g>
</g>
<g>
</g>
<g>
</g>
<g>
</g>
<g>
</g>
<g>
</g>
<g>
</g>
<g>
</g>
</svg>
