<?xml version="1.0" encoding="iso-8859-1"?>
<!-- Generator: Adobe Illustrator 19.0.0, SVG Export Plug-In . SVG Version: 6.00 Build 0)  -->
<svg xmlns="http://www.w3.org/2000/svg" xmlns:xlink="http://www.w3.org/1999/xlink" version="1.1" id="Layer_1" x="0px" y="0px" viewBox="0 0 512 512" style="enable-background:new 0 0 512 512;" xml:space="preserve">
<g>
	<g>
		<path d="M277.333,213.333c-2.417,0-4.854,0.188-7.313,0.542c-1.604-3.125-3.208-6.167-4.792-9.125    c28.938-20.563,57.063-48.125,54.771-98.083C320,58.646,290.417,0,255.896,0C221.479,0,192,58.646,192,106.667    c0,36.063,7.625,61.271,17.896,83.75C180.208,210.688,149.333,237.5,149.333,288c0,64.583,52.438,117.146,116.979,117.333    c-2.271,34.604-15.042,61.104-20.979,64c-2.529,0-4.88-0.633-7.133-1.443c4.393-5.479,7.133-12.337,7.133-19.891    c0-17.646-14.354-32-32-32c-17.646,0-32,14.354-32,32c0,2.206,0.224,4.361,0.651,6.441C185.268,486.676,212.247,512,245.333,512    c43.917,0,63.792-67.917,64-116.604c31.583-15.625,53.333-48.125,53.333-86.042C362.667,252.813,327.583,213.333,277.333,213.333z     M255.917,44.75c8.229,8.688,21.417,34.479,21.438,62.875c1.229,27.042-10.625,42.583-31.521,58.396    c-6.813-16.625-11.167-34.646-11.167-59.354C234.667,79.125,247.75,53.438,255.917,44.75z M192,288    c0-27.375,13.958-42.542,37.625-59.313c0.771,1.479,1.542,2.958,2.313,4.438c-16.896,15.5-29.271,38.854-29.271,65.542    c0,11.792,9.542,21.333,21.333,21.333s21.333-9.542,21.333-21.333c0-7.938,2.188-15.188,5.5-21.375    c7.229,22.042,12.854,49.188,14.958,85.375C225.021,362.188,192,328.875,192,288z M307.208,344.313    c-3.271-36.229-9.958-64.042-18-86.813C311.667,263.583,320,287.25,320,310.333C320,323.292,315.167,335.167,307.208,344.313z"/>
	</g>
</g>
<g>
</g>
<g>
</g>
<g>
</g>
<g>
</g>
<g>
</g>
<g>
</g>
<g>
</g>
<g>
</g>
<g>
</g>
<g>
</g>
<g>
</g>
<g>
</g>
<g>
</g>
<g>
</g>
<g>
</g>
</svg>
