<?xml version="1.0" encoding="iso-8859-1"?>
<!-- Generator: Adobe Illustrator 19.0.0, SVG Export Plug-In . SVG Version: 6.00 Build 0)  -->
<svg xmlns="http://www.w3.org/2000/svg" xmlns:xlink="http://www.w3.org/1999/xlink" version="1.1" id="Layer_1" x="0px" y="0px" viewBox="0 0 512 512" style="enable-background:new 0 0 512 512;" xml:space="preserve">
<g>
	<g>
		<g>
			<path d="M192,192c-35.292,0-64,28.708-64,64s28.708,64,64,64s64-28.708,64-64S227.292,192,192,192z M192,277.333     c-11.771,0-21.333-9.573-21.333-21.333s9.563-21.333,21.333-21.333s21.333,9.573,21.333,21.333S203.771,277.333,192,277.333z"/>
			<path d="M469.333,64H42.667C19.146,64,0,83.135,0,106.667v298.667C0,428.865,19.146,448,42.667,448h426.667     C492.854,448,512,428.865,512,405.333V106.667C512,83.135,492.854,64,469.333,64z M192,405.333     c-82.333,0-149.333-66.99-149.333-149.333s67-149.333,149.333-149.333S341.333,173.656,341.333,256S274.333,405.333,192,405.333z      M426.667,405.333c-11.771,0-21.333-9.573-21.333-21.333c0-11.76,9.563-21.333,21.333-21.333S448,372.24,448,384     C448,395.76,438.438,405.333,426.667,405.333z M412.438,210.281c-4.107,1.456-7.104,4.988-7.104,9.345V352     c0,2.828-1.124,5.54-3.124,7.539l-42.668,42.669c-2.083,2.083-4.813,3.125-7.542,3.125c-2.729,0-5.458-1.042-7.542-3.125     c-4.167-4.167-4.167-10.917,0-15.083L384,347.583V220.069c0-4.622-3.177-8.357-7.522-9.938     c-25.214-9.172-41.608-36.842-32.689-66.516c5.055-16.813,19.047-30.305,35.984-34.922C415.561,98.938,448,125.753,448,160     C448,183.178,433.138,202.947,412.438,210.281z"/>
		</g>
	</g>
</g>
<g>
</g>
<g>
</g>
<g>
</g>
<g>
</g>
<g>
</g>
<g>
</g>
<g>
</g>
<g>
</g>
<g>
</g>
<g>
</g>
<g>
</g>
<g>
</g>
<g>
</g>
<g>
</g>
<g>
</g>
</svg>
