<?xml version="1.0" encoding="iso-8859-1"?>
<!-- Generator: Adobe Illustrator 19.0.0, SVG Export Plug-In . SVG Version: 6.00 Build 0)  -->
<svg xmlns="http://www.w3.org/2000/svg" xmlns:xlink="http://www.w3.org/1999/xlink" version="1.1" id="Layer_1" x="0px" y="0px" viewBox="0 0 512 512" style="enable-background:new 0 0 512 512;" xml:space="preserve">
<g>
	<g>
		<g>
			<path d="M192,64H42.667C19.146,64,0,83.135,0,106.667v298.667C0,428.865,19.146,448,42.667,448H192     c23.521,0,42.667-19.135,42.667-42.667V106.667C234.667,83.135,215.521,64,192,64z M117.333,106.667     c29.417,0,53.333,23.927,53.333,53.333s-23.917,53.333-53.333,53.333C87.917,213.333,64,189.406,64,160     S87.917,106.667,117.333,106.667z M117.333,384c-41.167,0-74.667-33.5-74.667-74.667c0-41.167,33.5-74.667,74.667-74.667     c41.167,0,74.667,33.5,74.667,74.667C192,350.5,158.5,384,117.333,384z"/>
			<path d="M469.333,64H320c-23.521,0-42.667,19.135-42.667,42.667v298.667C277.333,428.865,296.479,448,320,448h149.333     C492.854,448,512,428.865,512,405.333V106.667C512,83.135,492.854,64,469.333,64z M394.667,106.667     C424.083,106.667,448,130.594,448,160s-23.917,53.333-53.333,53.333S341.333,189.406,341.333,160S365.25,106.667,394.667,106.667     z M394.667,384C353.5,384,320,350.5,320,309.333c0-41.167,33.5-74.667,74.667-74.667s74.667,33.5,74.667,74.667     C469.333,350.5,435.833,384,394.667,384z"/>
			<circle cx="117.333" cy="309.333" r="21.333"/>
			<circle cx="394.667" cy="309.333" r="21.333"/>
		</g>
	</g>
</g>
<g>
</g>
<g>
</g>
<g>
</g>
<g>
</g>
<g>
</g>
<g>
</g>
<g>
</g>
<g>
</g>
<g>
</g>
<g>
</g>
<g>
</g>
<g>
</g>
<g>
</g>
<g>
</g>
<g>
</g>
</svg>
