<?xml version="1.0" encoding="iso-8859-1"?>
<!-- Generator: Adobe Illustrator 19.0.0, SVG Export Plug-In . SVG Version: 6.00 Build 0)  -->
<svg xmlns="http://www.w3.org/2000/svg" xmlns:xlink="http://www.w3.org/1999/xlink" version="1.1" id="Layer_1" x="0px" y="0px" viewBox="0 0 469.333 469.333" style="enable-background:new 0 0 469.333 469.333;" xml:space="preserve">
<g>
	<g>
		<g>
			<circle cx="234.667" cy="234.667" r="85.333"/>
			<path d="M435.313,113.115l17.646-17.656c10.563-10.563,16.375-24.604,16.375-39.542C469.333,25.083,444.25,0,413.417,0     c-14.729,0-29.146,5.969-39.542,16.375l-17.646,17.656c-73.375-44.583-169.75-44.583-243.125,0L95.458,16.375     C85.062,5.969,70.646,0,55.917,0C25.083,0,0,25.083,0,55.917c0,14.938,5.813,28.979,16.375,39.542l17.646,17.656     C11.729,149.792,0,191.625,0,234.667c0,43.031,11.729,84.865,34.021,121.552l-17.646,17.656C5.812,384.438,0,398.479,0,413.417     c0,30.833,25.083,55.917,55.917,55.917c14.729,0,29.146-5.969,39.542-16.375l17.646-17.656     c73.375,44.583,169.75,44.583,243.125,0l17.646,17.656c10.396,10.406,24.813,16.375,39.542,16.375     c30.833,0,55.917-25.083,55.917-55.917c0-14.938-5.813-28.979-16.375-39.542l-17.646-17.656     c22.292-36.688,34.021-78.521,34.021-121.552C469.333,191.625,457.604,149.792,435.313,113.115z M32,53.333     C32,41.573,41.562,32,53.333,32c11.771,0,21.333,9.573,21.333,21.333c0,11.76-9.563,21.333-21.333,21.333     C41.562,74.667,32,65.094,32,53.333z M53.333,437.333C41.562,437.333,32,427.76,32,416c0-11.76,9.562-21.333,21.333-21.333     c11.771,0,21.333,9.573,21.333,21.333C74.667,427.76,65.104,437.333,53.333,437.333z M234.667,426.667     c-105.875,0-192-86.135-192-192s86.125-192,192-192s192,86.135,192,192S340.542,426.667,234.667,426.667z M437.333,416     c0,11.76-9.563,21.333-21.333,21.333c-11.771,0-21.333-9.573-21.333-21.333c0-11.76,9.563-21.333,21.333-21.333     C427.771,394.667,437.333,404.24,437.333,416z M416,74.667c-11.771,0-21.333-9.573-21.333-21.333     C394.667,41.573,404.229,32,416,32c11.771,0,21.333,9.573,21.333,21.333C437.333,65.094,427.771,74.667,416,74.667z"/>
		</g>
	</g>
</g>
<g>
</g>
<g>
</g>
<g>
</g>
<g>
</g>
<g>
</g>
<g>
</g>
<g>
</g>
<g>
</g>
<g>
</g>
<g>
</g>
<g>
</g>
<g>
</g>
<g>
</g>
<g>
</g>
<g>
</g>
</svg>
