<?xml version="1.0" encoding="iso-8859-1"?>
<!-- Generator: Adobe Illustrator 19.0.0, SVG Export Plug-In . SVG Version: 6.00 Build 0)  -->
<svg xmlns="http://www.w3.org/2000/svg" xmlns:xlink="http://www.w3.org/1999/xlink" version="1.1" id="Layer_1" x="0px" y="0px" viewBox="0 0 469.333 469.333" style="enable-background:new 0 0 469.333 469.333;" xml:space="preserve">
<g>
	<g>
		<g>
			<circle cx="234.667" cy="234.667" r="85.333"/>
			<path d="M426.667,0h-384C19.135,0,0,19.135,0,42.667v384c0,23.531,19.135,42.667,42.667,42.667h384     c23.531,0,42.667-19.135,42.667-42.667v-384C469.333,19.135,450.198,0,426.667,0z M64,42.667c11.76,0,21.333,9.573,21.333,21.333     c0,11.76-9.573,21.333-21.333,21.333c-11.76,0-21.333-9.573-21.333-21.333C42.667,52.24,52.24,42.667,64,42.667z M64,426.667     c-11.76,0-21.333-9.573-21.333-21.333S52.24,384,64,384c11.76,0,21.333,9.573,21.333,21.333S75.76,426.667,64,426.667z      M405.333,426.667c-11.76,0-21.333-9.573-21.333-21.333S393.573,384,405.333,384s21.333,9.573,21.333,21.333     S417.094,426.667,405.333,426.667z M234.667,426.667c-105.865,0-192-86.135-192-192s86.135-192,192-192s192,86.135,192,192     S340.531,426.667,234.667,426.667z M405.333,85.333C393.573,85.333,384,75.76,384,64c0-11.76,9.573-21.333,21.333-21.333     S426.667,52.24,426.667,64C426.667,75.76,417.094,85.333,405.333,85.333z"/>
		</g>
	</g>
</g>
<g>
</g>
<g>
</g>
<g>
</g>
<g>
</g>
<g>
</g>
<g>
</g>
<g>
</g>
<g>
</g>
<g>
</g>
<g>
</g>
<g>
</g>
<g>
</g>
<g>
</g>
<g>
</g>
<g>
</g>
</svg>
