<?xml version="1.0" encoding="iso-8859-1"?>
<!-- Generator: Adobe Illustrator 19.0.0, SVG Export Plug-In . SVG Version: 6.00 Build 0)  -->
<svg xmlns="http://www.w3.org/2000/svg" xmlns:xlink="http://www.w3.org/1999/xlink" version="1.1" id="Layer_1" x="0px" y="0px" viewBox="0 0 469.333 469.333" style="enable-background:new 0 0 469.333 469.333;" xml:space="preserve">
<g>
	<g>
		<g>
			<path d="M138.667,106.667H32c-5.896,0-10.667,4.771-10.667,10.667V352c0,5.896,4.771,10.667,10.667,10.667h106.667     c5.896,0,10.667-4.771,10.667-10.667V117.333C149.333,111.438,144.563,106.667,138.667,106.667z"/>
			<path d="M443.25,1.792c-2.979-1.979-6.729-2.344-10.021-0.969l-256,106.667c-3.969,1.656-6.563,5.542-6.563,9.844V352     c0,4.302,2.594,8.188,6.563,9.844l256,106.667c1.323,0.552,2.719,0.823,4.104,0.823c2.073,0,4.135-0.604,5.917-1.792     c2.969-1.979,4.75-5.313,4.75-8.875v-448C448,7.104,446.219,3.771,443.25,1.792z"/>
		</g>
	</g>
</g>
<g>
</g>
<g>
</g>
<g>
</g>
<g>
</g>
<g>
</g>
<g>
</g>
<g>
</g>
<g>
</g>
<g>
</g>
<g>
</g>
<g>
</g>
<g>
</g>
<g>
</g>
<g>
</g>
<g>
</g>
</svg>
