<?xml version="1.0" encoding="iso-8859-1"?>
<!-- Generator: Adobe Illustrator 19.0.0, SVG Export Plug-In . SVG Version: 6.00 Build 0)  -->
<svg xmlns="http://www.w3.org/2000/svg" xmlns:xlink="http://www.w3.org/1999/xlink" version="1.1" id="Layer_1" x="0px" y="0px" viewBox="0 0 469.333 469.333" style="enable-background:new 0 0 469.333 469.333;" xml:space="preserve">
<g>
	<g>
		<g>
			<path d="M456.625,157.125c-1.854-5.573-7.844-8.646-13.49-6.74c-5.583,1.865-8.604,7.896-6.74,13.49     C444.094,186.969,448,210.792,448,234.667s-3.906,47.698-11.604,70.792c-1.865,5.594,1.156,11.625,6.74,13.49     c1.125,0.375,2.26,0.552,3.375,0.552c4.469,0,8.625-2.823,10.115-7.292c8.438-25.281,12.708-51.365,12.708-77.542     S465.063,182.406,456.625,157.125z"/>
			<path d="M401.958,163.865c-5.583,1.854-8.604,7.896-6.74,13.49c6.229,18.708,9.396,37.99,9.396,57.313     s-3.167,38.604-9.396,57.312c-1.865,5.594,1.156,11.635,6.74,13.49c1.125,0.375,2.26,0.552,3.375,0.552     c4.469,0,8.625-2.823,10.115-7.292c6.969-20.896,10.5-42.448,10.5-64.062s-3.531-43.167-10.5-64.063     C413.594,165.021,407.615,162,401.958,163.865z"/>
			<path d="M320.854,0c-9.979,0-19.646,3.573-27.208,10.073L156.052,128H42.667C19.135,128,0,147.135,0,170.667v128     c0,23.531,19.135,42.667,42.667,42.667h113.385L293.635,459.26c7.573,6.5,17.24,10.073,27.219,10.073     c23.052,0,41.813-18.76,41.813-41.813V41.812C362.667,18.76,343.906,0,320.854,0z"/>
		</g>
	</g>
</g>
<g>
</g>
<g>
</g>
<g>
</g>
<g>
</g>
<g>
</g>
<g>
</g>
<g>
</g>
<g>
</g>
<g>
</g>
<g>
</g>
<g>
</g>
<g>
</g>
<g>
</g>
<g>
</g>
<g>
</g>
</svg>
