<?xml version="1.0" encoding="iso-8859-1"?>
<!-- Generator: Adobe Illustrator 19.0.0, SVG Export Plug-In . SVG Version: 6.00 Build 0)  -->
<svg xmlns="http://www.w3.org/2000/svg" xmlns:xlink="http://www.w3.org/1999/xlink" version="1.1" id="Layer_1" x="0px" y="0px" viewBox="0 0 512 512" style="enable-background:new 0 0 512 512;" xml:space="preserve">
<g>
	<g>
		<path d="M469.333,149.343h-29.871L185.438,43.503c-5.396-2.292-11.688,0.292-13.958,5.739c-2.25,5.437,0.313,11.687,5.75,13.947    l206.775,86.154H42.667C19.146,149.343,0,168.478,0,192.009v234.659c0,23.531,19.146,42.665,42.667,42.665h426.667    c23.521,0,42.667-19.135,42.667-42.665V192.009C512,168.478,492.854,149.343,469.333,149.343z M42.667,202.667    c0-5.896,4.771-10.667,10.667-10.667H288c5.896,0,10.667,4.771,10.667,10.667v42.667c0,5.896-4.771,10.667-10.667,10.667H53.333    c-5.896,0-10.667-4.771-10.667-10.667V202.667z M330.667,426.667H53.333c-5.896,0-10.667-4.771-10.667-10.667    c0-5.896,4.771-10.667,10.667-10.667h277.333c5.896,0,10.667,4.771,10.667,10.667    C341.333,421.896,336.563,426.667,330.667,426.667z M330.667,384H53.333c-5.896,0-10.667-4.771-10.667-10.667    c0-5.896,4.771-10.667,10.667-10.667h277.333c5.896,0,10.667,4.771,10.667,10.667C341.333,379.229,336.563,384,330.667,384z     M330.667,341.333H53.333c-5.896,0-10.667-4.771-10.667-10.667c0-5.896,4.771-10.667,10.667-10.667h277.333    c5.896,0,10.667,4.771,10.667,10.667C341.333,336.563,336.563,341.333,330.667,341.333z M330.667,298.667H53.333    c-5.896,0-10.667-4.771-10.667-10.667s4.771-10.667,10.667-10.667h277.333c5.896,0,10.667,4.771,10.667,10.667    S336.563,298.667,330.667,298.667z M416,426.667c-17.646,0-32-14.354-32-32s14.354-32,32-32c17.646,0,32,14.354,32,32    S433.646,426.667,416,426.667z M416,341.333c-17.646,0-32-14.354-32-32c0-17.646,14.354-32,32-32c17.646,0,32,14.354,32,32    C448,326.979,433.646,341.333,416,341.333z M469.333,245.333c0,5.896-4.771,10.667-10.667,10.667h-128    c-5.896,0-10.667-4.771-10.667-10.667v-42.667c0-5.896,4.771-10.667,10.667-10.667h128c5.896,0,10.667,4.771,10.667,10.667    V245.333z"/>
	</g>
</g>
<g>
</g>
<g>
</g>
<g>
</g>
<g>
</g>
<g>
</g>
<g>
</g>
<g>
</g>
<g>
</g>
<g>
</g>
<g>
</g>
<g>
</g>
<g>
</g>
<g>
</g>
<g>
</g>
<g>
</g>
</svg>
