<?xml version="1.0" encoding="iso-8859-1"?>
<!-- Generator: Adobe Illustrator 19.0.0, SVG Export Plug-In . SVG Version: 6.00 Build 0)  -->
<svg xmlns="http://www.w3.org/2000/svg" xmlns:xlink="http://www.w3.org/1999/xlink" version="1.1" id="Layer_1" x="0px" y="0px" viewBox="0 0 512 512" style="enable-background:new 0 0 512 512;" xml:space="preserve">
<g>
	<g>
		<g>
			<path d="M405.333,298.667H384v-256C384,19.146,364.865,0,341.333,0H170.667C147.135,0,128,19.146,128,42.667v256h-21.333     C47.854,298.667,0,346.521,0,405.333S47.854,512,106.667,512h298.667C464.146,512,512,464.146,512,405.333     S464.146,298.667,405.333,298.667z M106.667,469.333c-35.292,0-64-28.708-64-64c0-35.292,28.708-64,64-64     c35.292,0,64,28.708,64,64C170.667,440.625,141.958,469.333,106.667,469.333z M170.667,42.667h170.667v256H170.667V42.667z      M224,448h-21.333c-5.896,0-10.667-4.771-10.667-10.667c0-5.896,4.771-10.667,10.667-10.667H224     c5.896,0,10.667,4.771,10.667,10.667C234.667,443.229,229.896,448,224,448z M213.333,384c-11.76,0-21.333-9.563-21.333-21.333     s9.573-21.333,21.333-21.333c11.76,0,21.333,9.563,21.333,21.333S225.094,384,213.333,384z M309.333,448H288     c-5.896,0-10.667-4.771-10.667-10.667c0-5.896,4.771-10.667,10.667-10.667h21.333c5.896,0,10.667,4.771,10.667,10.667     C320,443.229,315.229,448,309.333,448z M298.667,384c-11.76,0-21.333-9.563-21.333-21.333s9.573-21.333,21.333-21.333     c11.76,0,21.333,9.563,21.333,21.333S310.427,384,298.667,384z M405.333,469.333c-35.292,0-64-28.708-64-64     c0-35.292,28.708-64,64-64c35.292,0,64,28.708,64,64C469.333,440.625,440.625,469.333,405.333,469.333z"/>
			<circle cx="320" cy="64" r="10.667"/>
			<path d="M266.667,53.333h-21.333c-5.896,0-10.667,4.771-10.667,10.667s4.771,10.667,10.667,10.667h21.333     c5.896,0,10.667-4.771,10.667-10.667S272.563,53.333,266.667,53.333z"/>
		</g>
	</g>
</g>
<g>
</g>
<g>
</g>
<g>
</g>
<g>
</g>
<g>
</g>
<g>
</g>
<g>
</g>
<g>
</g>
<g>
</g>
<g>
</g>
<g>
</g>
<g>
</g>
<g>
</g>
<g>
</g>
<g>
</g>
</svg>
