<?xml version="1.0" encoding="iso-8859-1"?>
<!-- Generator: Adobe Illustrator 19.0.0, SVG Export Plug-In . SVG Version: 6.00 Build 0)  -->
<svg xmlns="http://www.w3.org/2000/svg" xmlns:xlink="http://www.w3.org/1999/xlink" version="1.1" id="Layer_1" x="0px" y="0px" viewBox="0 0 512 512" style="enable-background:new 0 0 512 512;" xml:space="preserve">
<g>
	<g>
		<g>
			<path d="M81.667,128L64.896,362.667h382.208L430.333,128H81.667z M117.333,149.333h277.333c5.896,0,10.667,4.771,10.667,10.667     s-4.771,10.667-10.667,10.667H117.333c-5.896,0-10.667-4.771-10.667-10.667S111.438,149.333,117.333,149.333z M128,213.333     c-5.896,0-10.667-4.771-10.667-10.667c0-5.896,4.771-10.667,10.667-10.667h256c5.896,0,10.667,4.771,10.667,10.667     c0,5.896-4.771,10.667-10.667,10.667H128z M384,245.333c0,5.896-4.771,10.667-10.667,10.667H138.667     c-5.896,0-10.667-4.771-10.667-10.667c0-5.896,4.771-10.667,10.667-10.667h234.667C379.229,234.667,384,239.438,384,245.333z      M117.333,341.333c-17.646,0-32-14.354-32-32c0-17.646,14.354-32,32-32c17.646,0,32,14.354,32,32     C149.333,326.979,134.979,341.333,117.333,341.333z M202.667,341.333h-21.333c-5.896,0-10.667-4.771-10.667-10.667     c0-5.896,4.771-10.667,10.667-10.667h21.333c5.896,0,10.667,4.771,10.667,10.667     C213.333,336.563,208.563,341.333,202.667,341.333z M266.667,341.333h-21.333c-5.896,0-10.667-4.771-10.667-10.667     c0-5.896,4.771-10.667,10.667-10.667h21.333c5.896,0,10.667,4.771,10.667,10.667     C277.333,336.563,272.563,341.333,266.667,341.333z M330.667,341.333h-21.333c-5.896,0-10.667-4.771-10.667-10.667     c0-5.896,4.771-10.667,10.667-10.667h21.333c5.896,0,10.667,4.771,10.667,10.667     C341.333,336.563,336.563,341.333,330.667,341.333z M394.667,341.333c-17.646,0-32-14.354-32-32c0-17.646,14.354-32,32-32     s32,14.354,32,32C426.667,326.979,412.313,341.333,394.667,341.333z"/>
			<path d="M511.875,371.104l-19.104-267.49C491.167,81.406,472.458,64,450.208,64H61.792c-22.25,0-40.958,17.406-42.563,39.625     L0.125,371.188C0.042,372.385,0,373.594,0,374.802c0,25.447,18.465,46.57,42.667,50.935v11.596     c0,5.896,4.771,10.667,10.667,10.667h21.333c5.896,0,10.667-4.771,10.667-10.667v-10.667h341.333v10.667     c0,5.896,4.771,10.667,10.667,10.667h21.333c5.896,0,10.667-4.771,10.667-10.667v-11.596     C493.535,421.372,512,400.249,512,374.802C512,373.594,511.958,372.385,511.875,371.104z M458.979,384     c-0.104,0.01-0.25,0-0.417,0H53.438c-2.958,0-5.792-1.229-7.813-3.396s-3.042-5.073-2.833-8.031l18.292-256     c0.396-5.583,5.042-9.906,10.646-9.906h368.542c5.604,0,10.25,4.323,10.646,9.906L469,369.615     c0.417,1.156,0.646,2.417,0.646,3.719C469.646,379.229,464.875,384,458.979,384z"/>
		</g>
	</g>
</g>
<g>
</g>
<g>
</g>
<g>
</g>
<g>
</g>
<g>
</g>
<g>
</g>
<g>
</g>
<g>
</g>
<g>
</g>
<g>
</g>
<g>
</g>
<g>
</g>
<g>
</g>
<g>
</g>
<g>
</g>
</svg>
