<?xml version="1.0" encoding="iso-8859-1"?>
<!-- Generator: Adobe Illustrator 19.0.0, SVG Export Plug-In . SVG Version: 6.00 Build 0)  -->
<svg xmlns="http://www.w3.org/2000/svg" xmlns:xlink="http://www.w3.org/1999/xlink" version="1.1" id="Layer_1" x="0px" y="0px" viewBox="0 0 512 512" style="enable-background:new 0 0 512 512;" xml:space="preserve">
<g>
	<g>
		<g>
			<path d="M346.62,412.948c-1.319-4.577-5.527-7.754-10.311-7.754H175.691c-4.784,0-8.992,3.177-10.311,7.754l-6.124,21.403     c-0.921,3.24-0.272,6.709,1.748,9.385c2.031,2.696,5.203,4.264,8.563,4.264h172.865c3.36,0,6.532-1.568,8.563-4.264     c2.02-2.675,2.669-6.145,1.748-9.385L346.62,412.948z"/>
			<path d="M405.333,138.667c0-5.896-4.771-10.667-10.667-10.667S384,132.771,384,138.667V160c0,5.896,4.771,10.667,10.667,10.667     s10.667-4.771,10.667-10.667V138.667z"/>
			<path d="M370.854,182.771l-18.469,10.667c-5.104,2.938-6.854,9.458-3.906,14.563c1.979,3.417,5.563,5.333,9.25,5.333     c1.813,0,3.646-0.458,5.323-1.438l18.469-10.667c5.104-2.938,6.854-9.458,3.906-14.563     C382.479,181.563,375.917,179.771,370.854,182.771z"/>
			<path d="M436.948,193.438l-18.469-10.667c-5.104-3-11.635-1.208-14.573,3.896c-2.948,5.104-1.198,11.625,3.906,14.563     l18.469,10.667c1.677,0.979,3.51,1.438,5.323,1.438c3.688,0,7.271-1.917,9.25-5.333     C443.802,202.896,442.052,196.375,436.948,193.438z"/>
			<path d="M485.203,295.315c-3.999-1.63-8.604-0.732-11.682,2.32l-98.345,98.174c-0.806,0.815-1.738,1.484-3.308,2.654     c-3.517,2.675-5.045,7.232-3.831,11.475l8.667,30.307c1.319,4.577,5.527,7.754,10.311,7.754h61.927     c23.647,0,42.876-19.208,42.876-42.806v-99.992C491.818,300.875,489.212,296.967,485.203,295.315z M448.942,426.597     c-11.818,0-21.438-9.594-21.438-21.403s9.62-21.403,21.438-21.403s21.438,9.594,21.438,21.403S460.76,426.597,448.942,426.597z"/>
			<path d="M139.462,397.962c-0.9-0.669-1.832-1.338-2.669-2.174L38.48,297.636c-3.057-3.052-7.652-3.95-11.682-2.32     c-4.009,1.651-6.616,5.56-6.616,9.886v99.992c0,23.598,19.229,42.806,42.876,42.806h61.927c4.784,0,8.992-3.177,10.311-7.754     l8.667-30.307C145.178,405.675,143.011,400.638,139.462,397.962z M63.058,426.597c-11.818,0-21.438-9.594-21.438-21.403     s9.62-21.403,21.438-21.403s21.438,9.594,21.438,21.403S74.876,426.597,63.058,426.597z"/>
			<path d="M477.066,263.434C498.6,242.291,512,212.92,512,180.462C512,116.253,459.672,64,395.347,64     c-60.705,0-110.675,46.554-116.11,105.761h-46.474C227.327,110.554,177.358,64,116.653,64C52.328,64,0,116.253,0,180.462     c0,32.682,13.602,62.218,35.397,83.391c0.307,0.496,0.659,1.097,0.822,1.259L151.95,380.656c2.01,2.007,4.731,3.135,7.579,3.135     h192.942c2.847,0,5.569-1.129,7.579-3.135l116.907-117.054C476.979,263.579,477.042,263.463,477.066,263.434z M116.653,254.119     c-40.678,0-73.777-33.045-73.777-73.656c0-40.611,33.099-73.656,73.777-73.656s73.777,33.045,73.777,73.656     C190.43,221.074,157.331,254.119,116.653,254.119z M191.686,362.388c-11.818,0-21.438-9.594-21.438-21.403     c0-11.809,9.62-21.403,21.438-21.403s21.438,9.594,21.438,21.403C213.124,352.794,203.504,362.388,191.686,362.388z      M320.314,362.388c-11.818,0-21.438-9.594-21.438-21.403c0-11.809,9.62-21.403,21.438-21.403s21.438,9.594,21.438,21.403     C341.752,352.794,332.132,362.388,320.314,362.388z M395.347,254.119c-40.678,0-73.777-33.045-73.777-73.656     c0-40.611,33.099-73.656,73.777-73.656s73.777,33.045,73.777,73.656C469.124,221.074,436.025,254.119,395.347,254.119z"/>
			<path d="M128,138.667c0-5.896-4.771-10.667-10.667-10.667c-5.896,0-10.667,4.771-10.667,10.667V160     c0,5.896,4.771,10.667,10.667,10.667c5.896,0,10.667-4.771,10.667-10.667V138.667z"/>
			<path d="M93.521,182.771l-18.469,10.667c-5.104,2.938-6.854,9.458-3.906,14.563c1.979,3.417,5.563,5.333,9.25,5.333     c1.813,0,3.646-0.458,5.323-1.438l18.469-10.667c5.104-2.938,6.854-9.458,3.906-14.563     C105.135,181.563,98.583,179.771,93.521,182.771z"/>
			<path d="M159.615,193.438l-18.469-10.667c-5.104-3-11.635-1.208-14.573,3.896c-2.948,5.104-1.198,11.625,3.906,14.563     l18.469,10.667c1.677,0.979,3.51,1.438,5.323,1.438c3.688,0,7.271-1.917,9.25-5.333     C166.469,202.896,164.719,196.375,159.615,193.438z"/>
		</g>
	</g>
</g>
<g>
</g>
<g>
</g>
<g>
</g>
<g>
</g>
<g>
</g>
<g>
</g>
<g>
</g>
<g>
</g>
<g>
</g>
<g>
</g>
<g>
</g>
<g>
</g>
<g>
</g>
<g>
</g>
<g>
</g>
</svg>
