<?xml version="1.0" encoding="iso-8859-1"?>
<!-- Generator: Adobe Illustrator 19.0.0, SVG Export Plug-In . SVG Version: 6.00 Build 0)  -->
<svg xmlns="http://www.w3.org/2000/svg" xmlns:xlink="http://www.w3.org/1999/xlink" version="1.1" id="Layer_1" x="0px" y="0px" viewBox="0 0 512 512" style="enable-background:new 0 0 512 512;" xml:space="preserve">
<g>
	<g>
		<g>
			<path d="M508.874,478.707L33.293,3.125c-4.167-4.165-10.919-4.165-15.086,0L3.126,18.207c-4.167,4.165-4.167,10.919,0,15.085     L140.964,171.13c-0.763-0.173-1.482-0.464-2.297-0.464c-5.896,0-10.667,4.771-10.667,10.667v53.333     c0,66.983,51.734,122.01,117.333,127.46V448h-32c-23.531,0-42.667,19.135-42.667,42.667v10.667     c0,5.896,4.771,10.667,10.667,10.667h149.333c5.896,0,10.667-4.771,10.667-10.667v-10.667c0-23.531-19.135-42.667-42.667-42.667     h-32v-86.337c17.624-1.487,34.51-6.514,49.931-14.898l162.109,162.109c4.167,4.165,10.919,4.165,15.086,0l15.081-15.082     C513.04,489.626,513.04,482.872,508.874,478.707z M256,341.333c-58.813,0-106.667-47.854-106.667-106.667v-53.333     c0-0.815-0.29-1.534-0.464-2.297l21.797,21.796v33.835C170.667,281.719,208.948,320,256,320c9.816,0,19.469-1.865,28.626-5.207     l16.167,16.167C286.828,337.501,271.694,341.333,256,341.333z"/>
			<path d="M320.656,260.323c2.031,2.031,4.75,3.125,7.542,3.125c0.948,0,1.906-0.125,2.844-0.385     c3.708-1.031,6.573-3.969,7.5-7.698c1.906-7.604,2.792-14.177,2.792-20.698V85.333C341.333,38.281,303.052,0,256,0     s-85.333,38.281-85.333,85.333v20.583c0,2.833,1.125,5.542,3.125,7.542L320.656,260.323z"/>
			<path d="M356.719,295.563c1.51,0.74,3.104,1.083,4.667,1.083c3.948,0,7.75-2.198,9.594-5.99     c8.646-17.708,13.021-36.542,13.021-55.99v-53.333c0-5.896-4.771-10.667-10.667-10.667c-5.896,0-10.667,4.771-10.667,10.667     v53.333c0,16.177-3.656,31.865-10.854,46.635C349.229,286.594,351.427,292.979,356.719,295.563z"/>
		</g>
	</g>
</g>
<g>
</g>
<g>
</g>
<g>
</g>
<g>
</g>
<g>
</g>
<g>
</g>
<g>
</g>
<g>
</g>
<g>
</g>
<g>
</g>
<g>
</g>
<g>
</g>
<g>
</g>
<g>
</g>
<g>
</g>
</svg>
