<?xml version="1.0" encoding="iso-8859-1"?>
<!-- Generator: Adobe Illustrator 19.0.0, SVG Export Plug-In . SVG Version: 6.00 Build 0)  -->
<svg xmlns="http://www.w3.org/2000/svg" xmlns:xlink="http://www.w3.org/1999/xlink" version="1.1" id="Layer_1" x="0px" y="0px" viewBox="0 0 511.997 511.997" style="enable-background:new 0 0 511.997 511.997;" xml:space="preserve">
<g>
	<g>
		<g>
			<path d="M508.872,478.706L33.292,3.124c-4.167-4.165-10.919-4.165-15.086,0L3.125,18.206c-4.167,4.165-4.167,10.919,0,15.085     l94.708,94.708H53.332c-5.896,0-10.667,4.771-10.667,10.667v234.667c0,5.896,4.771,10.667,10.667,10.667h106.667     c5.896,0,10.667-4.771,10.667-10.667V200.831l21.333,21.333v151.168c0,4.302,2.583,8.188,6.563,9.844l256,106.667     c1.313,0.552,2.708,0.823,4.104,0.823c0.496,0,0.918-0.358,1.408-0.426l18.633,18.633c4.167,4.165,10.919,4.165,15.086,0     l15.081-15.082C513.039,489.626,513.039,482.872,508.872,478.706z"/>
			<path d="M451.124,390.791c2.042,2.042,4.771,3.125,7.542,3.125c1.375,0,2.771-0.26,4.083-0.813     c3.979-1.646,6.583-5.542,6.583-9.854V31.999c0-3.563-1.792-6.896-4.75-8.875c-2.938-1.958-6.729-2.333-10.021-0.969     L206.624,125.468c-3.292,1.365-5.667,4.281-6.354,7.771s0.396,7.104,2.917,9.615L451.124,390.791z"/>
		</g>
	</g>
</g>
<g>
</g>
<g>
</g>
<g>
</g>
<g>
</g>
<g>
</g>
<g>
</g>
<g>
</g>
<g>
</g>
<g>
</g>
<g>
</g>
<g>
</g>
<g>
</g>
<g>
</g>
<g>
</g>
<g>
</g>
</svg>
