<?xml version="1.0" encoding="iso-8859-1"?>
<!-- Generator: Adobe Illustrator 19.0.0, SVG Export Plug-In . SVG Version: 6.00 Build 0)  -->
<svg xmlns="http://www.w3.org/2000/svg" xmlns:xlink="http://www.w3.org/1999/xlink" version="1.1" id="Layer_1" x="0px" y="0px" viewBox="0 0 469.333 469.333" style="enable-background:new 0 0 469.333 469.333;" xml:space="preserve">
<g>
	<g>
		<g>
			<path d="M356.083,317.146c-3.99-1.656-8.573-0.74-11.625,2.313l-12.51,12.5c-12.063,12.104-33.156,12.104-45.24,0     c-6.042-6.042-9.375-14.073-9.375-22.625c0-8.552,3.333-16.583,9.375-22.625l44.5-44.5c4.167-4.167,4.167-10.917,0-15.083     l-44.5-44.5c-6.042-6.042-9.375-14.073-9.375-22.625c0-8.552,3.333-16.583,9.385-22.625c12.063-12.104,33.156-12.104,45.24,0     l12.5,12.5c3.052,3.073,7.656,4,11.625,2.313c3.99-1.646,6.583-5.542,6.583-9.854V41.812C362.667,18.76,343.906,0,320.854,0     c-9.979,0-19.646,3.573-27.208,10.073L156.052,128H42.667C19.135,128,0,147.135,0,170.667v128     c0,23.531,19.135,42.667,42.667,42.667h113.385L293.635,459.26c7.573,6.5,17.24,10.073,27.219,10.073     c23.052,0,41.813-18.76,41.813-41.813V327C362.667,322.688,360.073,318.792,356.083,317.146z"/>
			<path d="M399.083,234.667l67.125-67.125c4.167-4.167,4.167-10.917,0-15.083c-4.167-4.167-10.917-4.167-15.083,0L384,219.583     l-67.125-67.125c-4.167-4.167-10.917-4.167-15.083,0c-4.167,4.167-4.167,10.917,0,15.083l67.125,67.125l-67.125,67.125     c-4.167,4.167-4.167,10.917,0,15.083c2.083,2.083,4.813,3.125,7.542,3.125c2.729,0,5.458-1.042,7.542-3.125L384,249.75     l67.125,67.125c2.083,2.083,4.813,3.125,7.542,3.125c2.729,0,5.458-1.042,7.542-3.125c4.167-4.167,4.167-10.917,0-15.083     L399.083,234.667z"/>
		</g>
	</g>
</g>
<g>
</g>
<g>
</g>
<g>
</g>
<g>
</g>
<g>
</g>
<g>
</g>
<g>
</g>
<g>
</g>
<g>
</g>
<g>
</g>
<g>
</g>
<g>
</g>
<g>
</g>
<g>
</g>
<g>
</g>
</svg>
