<?xml version="1.0" encoding="iso-8859-1"?>
<!-- Generator: Adobe Illustrator 19.0.0, SVG Export Plug-In . SVG Version: 6.00 Build 0)  -->
<svg xmlns="http://www.w3.org/2000/svg" xmlns:xlink="http://www.w3.org/1999/xlink" version="1.1" id="Layer_1" x="0px" y="0px" viewBox="0 0 512 512" style="enable-background:new 0 0 512 512;" xml:space="preserve">
<g>
	<g>
		<path d="M373.333,256h21.333c5.891,0,10.667-4.776,10.667-10.667v-10.667c0-69.25-38.76-105.917-72.958-138.25    c-27.194-25.707-50.978-48.199-54.573-86.249C277.267,4.503,272.862,0,267.172,0h-21.839c-5.891,0-10.667,4.775-10.667,10.667v352    c0,11.771-9.573,21.333-21.333,21.333H192c-47.052,0-85.333,28.708-85.333,64c0,35.292,38.281,64,85.333,64    s85.333-28.708,85.333-64V240.507c8.379,9.082,17.18,17.501,25.719,25.577c31.99,30.25,59.615,56.375,59.615,107.25    c0,5.891,4.776,10.667,10.667,10.667h21.333c5.891,0,10.667-4.776,10.667-10.667c0-69.25-38.76-105.917-72.958-138.25    c-29.531-27.917-55.042-52.042-55.042-94.917v-38.229c8.365,9.063,17.198,17.417,25.719,25.479    c31.99,30.25,59.615,56.375,59.615,107.25v10.667C362.667,251.224,367.443,256,373.333,256z"/>
	</g>
</g>
<g>
</g>
<g>
</g>
<g>
</g>
<g>
</g>
<g>
</g>
<g>
</g>
<g>
</g>
<g>
</g>
<g>
</g>
<g>
</g>
<g>
</g>
<g>
</g>
<g>
</g>
<g>
</g>
<g>
</g>
</svg>
