<?xml version="1.0" encoding="iso-8859-1"?>
<!-- Generator: Adobe Illustrator 19.0.0, SVG Export Plug-In . SVG Version: 6.00 Build 0)  -->
<svg xmlns="http://www.w3.org/2000/svg" xmlns:xlink="http://www.w3.org/1999/xlink" version="1.1" id="Layer_1" x="0px" y="0px" viewBox="0 0 512 512" style="enable-background:new 0 0 512 512;" xml:space="preserve">
<g>
	<g>
		<path d="M332.375,96.417c-27.203-25.707-50.98-48.199-54.573-86.248C277.267,4.503,272.862,0,267.172,0h-21.839    c-5.891,0-10.667,4.776-10.667,10.667v352c0,11.782-9.551,21.333-21.333,21.333H192c-47.063,0-85.333,28.708-85.333,64    c0,35.292,38.271,64,85.333,64s85.333-28.708,85.333-64V101.938c8.375,9.063,17.188,17.417,25.729,25.479    c31.979,30.25,59.604,56.375,59.604,107.25v10.667c0,5.891,4.776,10.667,10.667,10.667h21.333c5.891,0,10.667-4.776,10.667-10.667    v-10.667C405.333,165.417,366.562,128.75,332.375,96.417z"/>
	</g>
</g>
<g>
</g>
<g>
</g>
<g>
</g>
<g>
</g>
<g>
</g>
<g>
</g>
<g>
</g>
<g>
</g>
<g>
</g>
<g>
</g>
<g>
</g>
<g>
</g>
<g>
</g>
<g>
</g>
<g>
</g>
</svg>
