<?xml version="1.0" encoding="iso-8859-1"?>
<!-- Generator: Adobe Illustrator 19.0.0, SVG Export Plug-In . SVG Version: 6.00 Build 0)  -->
<svg xmlns="http://www.w3.org/2000/svg" xmlns:xlink="http://www.w3.org/1999/xlink" version="1.1" id="Layer_1" x="0px" y="0px" viewBox="0 0 469.333 469.333" style="enable-background:new 0 0 469.333 469.333;" xml:space="preserve">
<g>
	<g>
		<path d="M461.708,4.984c-4.792-4.064-11.188-5.711-17.396-4.689L145.646,52.836C135.438,54.65,128,63.507,128,73.866v246.076    c0,11.776-9.563,21.342-21.333,21.342H85.333C38.271,341.283,0,370.003,0,405.308s38.271,64.025,85.333,64.025    s85.333-28.72,85.333-64.025V177.13l256-45.178v145.306c0,11.775-9.563,21.342-21.333,21.342H384    c-47.063,0-85.333,28.72-85.333,64.025S336.938,426.65,384,426.65s85.333-28.72,85.333-64.025V21.324    C469.333,15.009,466.542,9.028,461.708,4.984z"/>
	</g>
</g>
<g>
</g>
<g>
</g>
<g>
</g>
<g>
</g>
<g>
</g>
<g>
</g>
<g>
</g>
<g>
</g>
<g>
</g>
<g>
</g>
<g>
</g>
<g>
</g>
<g>
</g>
<g>
</g>
<g>
</g>
</svg>
