<?xml version="1.0" encoding="iso-8859-1"?>
<!-- Generator: Adobe Illustrator 19.0.0, SVG Export Plug-In . SVG Version: 6.00 Build 0)  -->
<svg xmlns="http://www.w3.org/2000/svg" xmlns:xlink="http://www.w3.org/1999/xlink" version="1.1" id="Layer_1" x="0px" y="0px" viewBox="0 0 469.333 469.333" style="enable-background:new 0 0 469.333 469.333;" xml:space="preserve">
<g>
	<g>
		<g>
			<path d="M341.333,0c-26.021,0-51.104,7.802-72.542,22.573c-2.604,1.792-4.271,4.656-4.563,7.813s0.833,6.271,3.083,8.51     l163.125,163.125c2,2.01,4.729,3.125,7.542,3.125c0.313,0,0.646-0.01,0.979-0.042c3.146-0.292,6-1.969,7.813-4.573     c14.75-21.438,22.563-46.521,22.563-72.531C469.333,57.417,411.917,0,341.333,0z"/>
			<path d="M252.229,53.979c-2.208-2.229-5.104-3.354-8.521-3.083c-3.146,0.292-6,1.969-7.813,4.573     c-14.75,21.438-22.563,46.521-22.563,72.531c0,70.583,57.417,128,128,128c26.021,0,51.104-7.802,72.542-22.573     c2.604-1.792,4.271-4.656,4.563-7.813c0.292-3.156-0.833-6.271-3.083-8.51L252.229,53.979z"/>
			<path d="M289.125,267.708c-40.458-15.167-72.354-47.052-87.521-87.5c-1.333-3.583-4.5-6.167-8.292-6.781     c-3.75-0.635-7.604,0.854-10,3.833L7.104,395.896c-0.625,0.781-1.104,1.635-1.479,2.521C1.937,403.802,0,409.833,0,416     c0,8.542,3.333,16.583,9.375,22.625l21.313,21.323c6.042,6.052,14.083,9.385,22.646,9.385c6.167,0,12.167-1.927,17.542-5.583     c0.896-0.385,1.771-0.896,2.563-1.542L292.062,286c2.979-2.396,4.458-6.219,3.833-10     C295.292,272.219,292.708,269.052,289.125,267.708z M210.208,274.208l-21.333,21.333c-2.083,2.083-4.813,3.125-7.542,3.125     c-2.729,0-5.458-1.042-7.542-3.125c-4.167-4.167-4.167-10.917,0-15.083l21.333-21.333c4.167-4.167,10.917-4.167,15.083,0     C214.375,263.292,214.375,270.042,210.208,274.208z"/>
		</g>
	</g>
</g>
<g>
</g>
<g>
</g>
<g>
</g>
<g>
</g>
<g>
</g>
<g>
</g>
<g>
</g>
<g>
</g>
<g>
</g>
<g>
</g>
<g>
</g>
<g>
</g>
<g>
</g>
<g>
</g>
<g>
</g>
</svg>
