<?xml version="1.0" encoding="iso-8859-1"?>
<!-- Generator: Adobe Illustrator 19.0.0, SVG Export Plug-In . SVG Version: 6.00 Build 0)  -->
<svg xmlns="http://www.w3.org/2000/svg" xmlns:xlink="http://www.w3.org/1999/xlink" version="1.1" id="Layer_1" x="0px" y="0px" viewBox="0 0 512 512" style="enable-background:new 0 0 512 512;" xml:space="preserve">
<g>
	<g>
		<g>
			<path d="M352,277.333H160c-5.896,0-10.667,4.771-10.667,10.667v170.667c0,5.896,4.771,10.667,10.667,10.667h192     c5.896,0,10.667-4.771,10.667-10.667V288C362.667,282.104,357.896,277.333,352,277.333z M313.75,298.667h12.5l10.667,10.667     L320,326.25l-16.917-16.917L313.75,298.667z M336.917,373.333L320,390.25l-16.917-16.917L320,356.417L336.917,373.333z      M304.917,341.333L288,358.25l-16.917-16.917L288,324.417L304.917,341.333z M272.917,373.333L256,390.25l-16.917-16.917     L256,356.417L272.917,373.333z M249.75,298.667h12.5l10.667,10.667L256,326.25l-16.917-16.917L249.75,298.667z M240.917,341.333     L224,358.25l-16.917-16.917L224,324.417L240.917,341.333z M208.917,373.333L192,390.25l-16.917-16.917L192,356.417     L208.917,373.333z M185.75,298.667h12.5l10.667,10.667L192,326.25l-16.917-16.917L185.75,298.667z M170.667,335.083l6.25,6.25     l-6.25,6.25V335.083z M170.667,399.083l6.25,6.25l-6.25,6.25V399.083z M198.25,448h-12.5l-10.667-10.667L192,420.417     l16.917,16.917L198.25,448z M207.083,405.333L224,388.417l16.917,16.917L224,422.25L207.083,405.333z M262.25,448h-12.5     l-10.667-10.667L256,420.417l16.917,16.917L262.25,448z M271.083,405.333L288,388.417l16.917,16.917L288,422.25L271.083,405.333z      M326.25,448h-12.5l-10.667-10.667L320,420.417l16.917,16.917L326.25,448z M341.333,411.583l-6.25-6.25l6.25-6.25V411.583z      M341.333,347.583l-6.25-6.25l6.25-6.25V347.583z"/>
			<circle cx="192" cy="149.333" r="21.333"/>
			<circle cx="256" cy="149.333" r="21.333"/>
			<circle cx="320" cy="149.333" r="21.333"/>
			<path d="M256,0C150.135,0,64,86.125,64,192v277.333C64,492.854,83.135,512,106.667,512H416c17.646,0,32-14.354,32-32V192     C448,86.125,361.865,0,256,0z M128.488,180.772C134.191,115.427,189.199,64,256,64s121.809,51.427,127.512,116.772     c0.531,6.079-4.629,11.228-10.732,11.228H139.22C133.117,192,127.957,186.852,128.488,180.772z M384,480     c0,5.891-4.776,10.667-10.667,10.667H138.667c-5.891,0-10.667-4.776-10.667-10.667V266.667c0-5.892,4.776-10.667,10.667-10.667     h234.667c5.891,0,10.667,4.775,10.667,10.667V480z"/>
		</g>
	</g>
</g>
<g>
</g>
<g>
</g>
<g>
</g>
<g>
</g>
<g>
</g>
<g>
</g>
<g>
</g>
<g>
</g>
<g>
</g>
<g>
</g>
<g>
</g>
<g>
</g>
<g>
</g>
<g>
</g>
<g>
</g>
</svg>
