<?xml version="1.0" encoding="iso-8859-1"?>
<!-- Generator: Adobe Illustrator 19.0.0, SVG Export Plug-In . SVG Version: 6.00 Build 0)  -->
<svg xmlns="http://www.w3.org/2000/svg" xmlns:xlink="http://www.w3.org/1999/xlink" version="1.1" id="Layer_1" x="0px" y="0px" viewBox="0 0 512 512" style="enable-background:new 0 0 512 512;" xml:space="preserve">
<g>
	<g>
		<g>
			<path d="M309.333,256H202.667c-5.896,0-10.667,4.771-10.667,10.667v128c0,1.146,0.188,2.292,0.552,3.375l20.781,62.344v40.948     c0,5.896,4.771,10.667,10.667,10.667h64c5.896,0,10.667-4.771,10.667-10.667v-40.948l20.781-62.344     c0.365-1.083,0.552-2.229,0.552-3.375v-128C320,260.771,315.229,256,309.333,256z"/>
			<path d="M224,234.667h64c5.896,0,10.667-4.771,10.667-10.667V117.333c0-7.625-2.729-14.771-7.51-20.396     c4.844-7.688,7.51-16.813,7.51-26.271C298.667,50.167,283.719,0,256,0s-42.667,50.167-42.667,70.667     c0,9.458,2.667,18.583,7.51,26.271c-4.781,5.625-7.51,12.771-7.51,20.396V224C213.333,229.896,218.104,234.667,224,234.667z"/>
		</g>
	</g>
</g>
<g>
</g>
<g>
</g>
<g>
</g>
<g>
</g>
<g>
</g>
<g>
</g>
<g>
</g>
<g>
</g>
<g>
</g>
<g>
</g>
<g>
</g>
<g>
</g>
<g>
</g>
<g>
</g>
<g>
</g>
</svg>
