<?xml version="1.0" encoding="iso-8859-1"?>
<!-- Generator: Adobe Illustrator 19.0.0, SVG Export Plug-In . SVG Version: 6.00 Build 0)  -->
<svg xmlns="http://www.w3.org/2000/svg" xmlns:xlink="http://www.w3.org/1999/xlink" version="1.1" id="Layer_1" x="0px" y="0px" viewBox="0 0 512 512" style="enable-background:new 0 0 512 512;" xml:space="preserve">
<g>
	<g>
		<g>
			<path d="M213.531,224.25c0.031,5.875,4.792,10.625,10.667,10.625h64c2.833,0,5.563-1.125,7.563-3.146     c2-2,3.115-4.729,3.104-7.563l-0.198-42.875v-63.958c0-10.417-5.078-19.595-12.807-25.443l9.682-9.682     c2.854-2.854,3.854-7.083,2.573-10.917l-21.333-64C275.333,2.938,271.26,0,266.667,0h-21.333c-4.594,0-8.667,2.938-10.115,7.292     l-21.333,64c-1.281,3.833-0.281,8.063,2.573,10.917l9.682,9.682c-7.729,5.848-12.807,15.026-12.807,25.443V192     c0,0.089,0.048,0.161,0.051,0.249L213.531,224.25z"/>
			<path d="M309.333,256H202.667c-5.896,0-10.667,4.771-10.667,10.667v128c0,1.146,0.188,2.292,0.552,3.375l20.781,62.344v40.948     c0,5.896,4.771,10.667,10.667,10.667h64c5.896,0,10.667-4.771,10.667-10.667v-40.948l20.781-62.344     c0.365-1.083,0.552-2.229,0.552-3.375v-128C320,260.771,315.229,256,309.333,256z"/>
		</g>
	</g>
</g>
<g>
</g>
<g>
</g>
<g>
</g>
<g>
</g>
<g>
</g>
<g>
</g>
<g>
</g>
<g>
</g>
<g>
</g>
<g>
</g>
<g>
</g>
<g>
</g>
<g>
</g>
<g>
</g>
<g>
</g>
</svg>
