<?xml version="1.0" encoding="iso-8859-1"?>
<!-- Generator: Adobe Illustrator 19.0.0, SVG Export Plug-In . SVG Version: 6.00 Build 0)  -->
<svg xmlns="http://www.w3.org/2000/svg" xmlns:xlink="http://www.w3.org/1999/xlink" version="1.1" id="Layer_1" x="0px" y="0px" viewBox="0 0 512 512" style="enable-background:new 0 0 512 512;" xml:space="preserve">
<g>
	<g>
		<g>
			<path d="M480,64H32C14.354,64,0,78.354,0,96v21.333c0,17.646,14.354,32,32,32h448c17.646,0,32-14.354,32-32V96     C512,78.354,497.646,64,480,64z"/>
			<path d="M469.333,170.667H42.667C19.146,170.667,0,189.802,0,213.333V256c0,23.531,19.146,42.667,42.667,42.667h426.667     C492.854,298.667,512,279.531,512,256v-42.667C512,189.802,492.854,170.667,469.333,170.667z M85.333,256     C73.563,256,64,246.427,64,234.667c0-11.76,9.563-21.333,21.333-21.333c11.771,0,21.333,9.573,21.333,21.333     C106.667,246.427,97.104,256,85.333,256z M149.333,256C137.563,256,128,246.427,128,234.667c0-11.76,9.563-21.333,21.333-21.333     c11.771,0,21.333,9.573,21.333,21.333C170.667,246.427,161.104,256,149.333,256z M213.333,256     C201.563,256,192,246.427,192,234.667c0-11.76,9.563-21.333,21.333-21.333c11.771,0,21.333,9.573,21.333,21.333     C234.667,246.427,225.104,256,213.333,256z M437.333,256H266.667c-5.896,0-10.667-4.771-10.667-10.667     c0-5.896,4.771-10.667,10.667-10.667h170.667c5.896,0,10.667,4.771,10.667,10.667C448,251.229,443.229,256,437.333,256z"/>
			<path d="M330.667,320H181.333c-5.896,0-10.667,4.771-10.667,10.667V416c0,5.896,4.771,10.667,10.667,10.667h149.333     c5.896,0,10.667-4.771,10.667-10.667v-85.333C341.333,324.771,336.563,320,330.667,320z"/>
			<path d="M138.667,320h-96C19.146,320,0,339.135,0,362.667V384c0,23.531,19.146,42.667,42.667,42.667v10.667     c0,5.896,4.771,10.667,10.667,10.667h21.333c5.896,0,10.667-4.771,10.667-10.667v-10.667h53.333     c5.896,0,10.667-4.771,10.667-10.667v-85.333C149.333,324.771,144.563,320,138.667,320z"/>
			<path d="M469.333,320h-96c-5.896,0-10.667,4.771-10.667,10.667V416c0,5.896,4.771,10.667,10.667,10.667h53.333v10.667     c0,5.896,4.771,10.667,10.667,10.667h21.333c5.896,0,10.667-4.771,10.667-10.667v-10.667C492.854,426.667,512,407.531,512,384     v-21.333C512,339.135,492.854,320,469.333,320z"/>
		</g>
	</g>
</g>
<g>
</g>
<g>
</g>
<g>
</g>
<g>
</g>
<g>
</g>
<g>
</g>
<g>
</g>
<g>
</g>
<g>
</g>
<g>
</g>
<g>
</g>
<g>
</g>
<g>
</g>
<g>
</g>
<g>
</g>
</svg>
