<?xml version="1.0" encoding="iso-8859-1"?>
<!-- Generator: Adobe Illustrator 19.0.0, SVG Export Plug-In . SVG Version: 6.00 Build 0)  -->
<svg xmlns="http://www.w3.org/2000/svg" xmlns:xlink="http://www.w3.org/1999/xlink" version="1.1" id="Layer_1" x="0px" y="0px" viewBox="0 0 512 512" style="enable-background:new 0 0 512 512;" xml:space="preserve">
<g>
	<g>
		<g>
			<path d="M341.333,0c-35.896,0-64,42.167-64,96s28.104,96,64,96c22.646,0,52.833-17.552,71.771-41.719     c3.083-3.938,7.896-7.354,14.979-1.813c2.25,1.76,3.667,4.281,4,7.115c0.354,2.833-0.438,5.625-2.188,7.865     c-10.938,13.958-24.958,26.104-40.563,35.135C386.021,200.49,384,204,384,207.813v186.854c0,13.888,8.944,25.617,21.333,30.035     v33.965c0,5.896,4.771,10.667,10.667,10.667v32c0,5.896,4.771,10.667,10.667,10.667s10.667-4.771,10.667-10.667v-32     c5.896,0,10.667-4.771,10.667-10.667v-33.965c12.389-4.418,21.333-16.147,21.333-30.035v-192     C469.333,105.052,429.271,0,341.333,0z"/>
			<path d="M170.667,0c-87.938,0-128,105.052-128,202.667v192c0,13.888,8.944,25.617,21.333,30.035v33.965     c0,5.896,4.771,10.667,10.667,10.667v32c0,5.896,4.771,10.667,10.667,10.667C91.229,512,96,507.229,96,501.333v-32     c5.896,0,10.667-4.771,10.667-10.667v-33.965C119.056,420.284,128,408.555,128,394.667V207.813c0-3.813-2.021-7.323-5.333-9.229     c-15.604-9.031-29.625-21.177-40.563-35.135c-1.75-2.24-2.542-5.031-2.188-7.865c0.333-2.833,1.75-5.354,4-7.115     c7.083-5.542,11.896-2.125,14.979,1.813C117.833,174.448,148.021,192,170.667,192c35.896,0,64-42.167,64-96S206.563,0,170.667,0z     "/>
		</g>
	</g>
</g>
<g>
</g>
<g>
</g>
<g>
</g>
<g>
</g>
<g>
</g>
<g>
</g>
<g>
</g>
<g>
</g>
<g>
</g>
<g>
</g>
<g>
</g>
<g>
</g>
<g>
</g>
<g>
</g>
<g>
</g>
</svg>
