<?xml version="1.0" encoding="iso-8859-1"?>
<!-- Generator: Adobe Illustrator 19.0.0, SVG Export Plug-In . SVG Version: 6.00 Build 0)  -->
<svg xmlns="http://www.w3.org/2000/svg" xmlns:xlink="http://www.w3.org/1999/xlink" version="1.1" id="Layer_1" x="0px" y="0px" viewBox="0 0 469.333 469.333" style="enable-background:new 0 0 469.333 469.333;" xml:space="preserve">
<g>
	<g>
		<g>
			<path d="M426.667,64H416c-5.896,0-10.667,4.771-10.667,10.667v74.667c0,23.531-19.135,42.667-42.667,42.667h-256     C83.135,192,64,172.865,64,149.333V74.667C64,68.771,59.229,64,53.333,64H42.667C19.135,64,0,83.135,0,106.667V224     c0,5.896,4.771,10.667,10.667,10.667h448c5.896,0,10.667-4.771,10.667-10.667V106.667C469.333,83.135,450.198,64,426.667,64z"/>
			<path d="M106.667,170.667h256c11.76,0,21.333-9.573,21.333-21.333V74.667C384,68.771,379.229,64,373.333,64h-32.25     c0.026-0.434,0.25-0.799,0.25-1.24V42.667C341.333,19.135,322.198,0,298.667,0h-128C147.135,0,128,19.135,128,42.667V64H96     c-5.896,0-10.667,4.771-10.667,10.667v74.667C85.333,161.094,94.906,170.667,106.667,170.667z M234.667,138.667     c-11.76,0-21.333-9.573-21.333-21.333c0-11.76,9.573-21.333,21.333-21.333S256,105.573,256,117.333     C256,129.094,246.427,138.667,234.667,138.667z M320,96c11.76,0,21.333,9.573,21.333,21.333c0,11.76-9.573,21.333-21.333,21.333     c-11.76,0-21.333-9.573-21.333-21.333C298.667,105.573,308.24,96,320,96z M170.667,42.667h128V62.76     c0,0.44,0.224,0.806,0.25,1.24h-128.25V42.667z M149.333,96c11.76,0,21.333,9.573,21.333,21.333     c0,11.76-9.573,21.333-21.333,21.333c-11.76,0-21.333-9.573-21.333-21.333C128,105.573,137.573,96,149.333,96z"/>
			<path d="M458.667,256h-448C4.771,256,0,260.771,0,266.667v160c0,23.531,19.135,42.667,42.667,42.667h384     c23.531,0,42.667-19.135,42.667-42.667v-160C469.333,260.771,464.563,256,458.667,256z M266.667,426.667h-64     c-17.646,0-32-14.354-32-32c0-17.646,14.354-32,32-32h64c17.646,0,32,14.354,32,32     C298.667,412.313,284.312,426.667,266.667,426.667z"/>
		</g>
	</g>
</g>
<g>
</g>
<g>
</g>
<g>
</g>
<g>
</g>
<g>
</g>
<g>
</g>
<g>
</g>
<g>
</g>
<g>
</g>
<g>
</g>
<g>
</g>
<g>
</g>
<g>
</g>
<g>
</g>
<g>
</g>
</svg>
