<?xml version="1.0" encoding="iso-8859-1"?>
<!-- Generator: Adobe Illustrator 19.0.0, SVG Export Plug-In . SVG Version: 6.00 Build 0)  -->
<svg xmlns="http://www.w3.org/2000/svg" xmlns:xlink="http://www.w3.org/1999/xlink" version="1.1" id="Layer_1" x="0px" y="0px" viewBox="0 0 512 512" style="enable-background:new 0 0 512 512;" xml:space="preserve">
<g>
	<g>
		<path d="M448.233,117.007C407.549,47.026,351.45,0,308.641,0c-9.093,0-17.384,2.115-24.675,6.283    c-8.228,4.741-19.186,14.63-24.612,34.855c-0.503,1.876-2.122,6.974-2.427,7.648c-35.528,78.588-151.747,252.04-187.598,272.745    c-0.029,0.017-0.044,0.047-0.073,0.064c-0.026,0.016-0.057,0.014-0.083,0.03l-3.437,2.063    c-29.56,17.714-44.402,26.613-44.402,49.6c0,29.258,23.016,31.949,87.277,32.133c4.226,11.913,15.228,20.559,28.397,21.246H31.999    c-5.895,0-10.666,4.745-10.666,10.642v32.01c0,23.539,19.134,42.681,42.663,42.681h277.309c23.529,0,42.663-19.142,42.663-42.681    v-32.01c0-5.898-4.77-10.642-10.666-10.642H213.316v-10.698c0-5.898-4.77-10.67-10.666-10.67s-10.666,4.772-10.666,10.67v10.698    h-51.68c16.864-0.879,30.349-14.785,30.349-31.872c0-17.652-14.353-32.01-31.997-32.01c-13.874,0-25.597,8.933-30.022,21.308    c-65.781-0.339-65.969-4.551-65.969-10.804c0-10.087,5.145-13.984,34.039-31.291l3.241-1.95    c23.18-13.213,139.708-23.965,259.768-23.965c40.34,0,96.425,3.784,96.425,3.784c0.605,0.02,1.25,0.238,1.837,0.238    c9.083,0,17.373-2.115,24.664-6.283c8.228-4.741,19.186-14.63,24.612-34.855C497.979,238.922,483.022,176.86,448.233,117.007z     M446.083,267.99c-1.458,5.417-3.365,8.146-4.646,8.885c-0.708,0.406-1.917,0.625-3.427,0.625    c-18.969,0-64.74-30.438-102.74-95.75c-32.792-56.417-41.052-105.646-34.688-129.406c1.458-5.417,3.365-8.146,4.646-8.885    c0.708-0.406,1.927-0.625,3.438-0.625c18.969,0,64.729,30.438,102.729,95.75C444.187,195,452.448,244.229,446.083,267.99z"/>
	</g>
</g>
<g>
</g>
<g>
</g>
<g>
</g>
<g>
</g>
<g>
</g>
<g>
</g>
<g>
</g>
<g>
</g>
<g>
</g>
<g>
</g>
<g>
</g>
<g>
</g>
<g>
</g>
<g>
</g>
<g>
</g>
</svg>
