<?xml version="1.0" encoding="iso-8859-1"?>
<!-- Generator: Adobe Illustrator 19.0.0, SVG Export Plug-In . SVG Version: 6.00 Build 0)  -->
<svg xmlns="http://www.w3.org/2000/svg" xmlns:xlink="http://www.w3.org/1999/xlink" version="1.1" id="Layer_1" x="0px" y="0px" viewBox="0 0 469.333 469.333" style="enable-background:new 0 0 469.333 469.333;" xml:space="preserve">
<g>
	<g>
		<path d="M426.667,0h-384C19.135,0,0,19.135,0,42.667v384c0,23.531,19.135,42.667,42.667,42.667h384    c23.531,0,42.667-19.135,42.667-42.667v-384C469.333,19.135,450.198,0,426.667,0z M149.333,181.333    c0,5.885-4.781,10.667-10.667,10.667H128c-5.896,0-10.667,4.771-10.667,10.667v192c0,5.885-4.781,10.667-10.667,10.667    S96,400.552,96,394.667v-192C96,196.771,91.229,192,85.333,192H74.667C68.781,192,64,187.219,64,181.333v-42.667    C64,132.781,68.781,128,74.667,128h10.667C91.229,128,96,123.229,96,117.333V74.667C96,68.781,100.781,64,106.667,64    s10.667,4.781,10.667,10.667v42.667c0,5.896,4.771,10.667,10.667,10.667h10.667c5.885,0,10.667,4.781,10.667,10.667V181.333z     M277.333,309.333c0,5.885-4.781,10.667-10.667,10.667H256c-5.896,0-10.667,4.771-10.667,10.667v64    c0,5.885-4.781,10.667-10.667,10.667S224,400.552,224,394.667v-64c0-5.896-4.771-10.667-10.667-10.667h-10.667    c-5.885,0-10.667-4.781-10.667-10.667v-42.667c0-5.885,4.781-10.667,10.667-10.667h10.667c5.896,0,10.667-4.771,10.667-10.667    V74.667C224,68.781,228.781,64,234.667,64s10.667,4.781,10.667,10.667v170.667c0,5.896,4.771,10.667,10.667,10.667h10.667    c5.885,0,10.667,4.781,10.667,10.667V309.333z M405.333,202.667c0,5.885-4.781,10.667-10.667,10.667H384    c-5.896,0-10.667,4.771-10.667,10.667v170.667c0,5.885-4.781,10.667-10.667,10.667c-5.885,0-10.667-4.781-10.667-10.667V224    c0-5.896-4.771-10.667-10.667-10.667h-10.667c-5.885,0-10.667-4.781-10.667-10.667V160c0-5.885,4.781-10.667,10.667-10.667h10.667    c5.896,0,10.667-4.771,10.667-10.667v-64C352,68.781,356.781,64,362.667,64c5.885,0,10.667,4.781,10.667,10.667v64    c0,5.896,4.771,10.667,10.667,10.667h10.667c5.885,0,10.667,4.781,10.667,10.667V202.667z"/>
	</g>
</g>
<g>
</g>
<g>
</g>
<g>
</g>
<g>
</g>
<g>
</g>
<g>
</g>
<g>
</g>
<g>
</g>
<g>
</g>
<g>
</g>
<g>
</g>
<g>
</g>
<g>
</g>
<g>
</g>
<g>
</g>
</svg>
