<?xml version="1.0" encoding="iso-8859-1"?>
<!-- Generator: Adobe Illustrator 19.0.0, SVG Export Plug-In . SVG Version: 6.00 Build 0)  -->
<svg xmlns="http://www.w3.org/2000/svg" xmlns:xlink="http://www.w3.org/1999/xlink" version="1.1" id="Layer_1" x="0px" y="0px" viewBox="0 0 512 512" style="enable-background:new 0 0 512 512;" xml:space="preserve">
<g>
	<g>
		<g>
			<path d="M469.333,64h-30.839c-4.591,0-8.667,2.938-10.119,7.294l-23.58,70.74c-1.453,4.359-5.533,7.299-10.128,7.299H117.325     c-4.59,0-8.665-2.937-10.117-7.292L83.625,71.294C82.173,66.938,78.097,64,73.506,64H42.667C19.103,64,0,83.103,0,106.667     v298.667C0,428.898,19.103,448,42.667,448h426.667C492.898,448,512,428.898,512,405.333V106.667     C512,83.103,492.898,64,469.333,64z M42.667,85.333c5.891,0,10.667,4.775,10.667,10.667c0,5.891-4.776,10.667-10.667,10.667     S32,101.891,32,96C32,90.108,36.776,85.333,42.667,85.333z M42.667,416C36.776,416,32,411.224,32,405.333     c0-5.892,4.776-10.667,10.667-10.667s10.667,4.775,10.667,10.667C53.333,411.224,48.557,416,42.667,416z M426.667,405.333H85.333     c-2.854,0-5.521-1.104-7.542-3.125l-32-32c-2.021-2.021-3.125-4.688-3.125-7.542V181.333c0-5.875,4.792-10.667,10.667-10.667     h405.333c5.875,0,10.667,4.792,10.667,10.667v181.333c0,2.854-1.104,5.521-3.125,7.542l-32,32     C432.188,404.229,429.521,405.333,426.667,405.333z M469.333,416c-5.891,0-10.667-4.776-10.667-10.667     c0-5.892,4.776-10.667,10.667-10.667S480,399.441,480,405.333C480,411.224,475.224,416,469.333,416z M469.333,106.667     c-5.891,0-10.667-4.776-10.667-10.667c0-5.892,4.776-10.667,10.667-10.667S480,90.108,480,96     C480,101.891,475.224,106.667,469.333,106.667z"/>
			<path d="M122.59,120.706c1.452,4.356,5.528,7.294,10.12,7.294h246.581c4.592,0,8.668-2.938,10.12-7.294l14.219-42.667     C405.931,71.132,400.79,64,393.509,64H118.491c-7.28,0-12.421,7.132-10.12,14.039L122.59,120.706z M362.667,85.333     c5.891,0,10.667,4.775,10.667,10.667c0,5.891-4.776,10.667-10.667,10.667S352,101.891,352,96     C352,90.108,356.776,85.333,362.667,85.333z M320,85.333c5.891,0,10.667,4.775,10.667,10.667c0,5.891-4.776,10.667-10.667,10.667     S309.333,101.891,309.333,96C309.333,90.108,314.109,85.333,320,85.333z M192,85.333c5.891,0,10.667,4.775,10.667,10.667     c0,5.891-4.776,10.667-10.667,10.667S181.333,101.891,181.333,96C181.333,90.108,186.109,85.333,192,85.333z M149.333,85.333     C155.224,85.333,160,90.108,160,96c0,5.891-4.776,10.667-10.667,10.667S138.667,101.891,138.667,96     C138.667,90.108,143.443,85.333,149.333,85.333z"/>
			<path d="M411.042,228.958c-0.035-0.035-0.083-0.044-0.118-0.078c-9.648-9.599-22.931-15.547-37.59-15.547H138.667     c-14.659,0-27.941,5.948-37.59,15.547c-0.035,0.034-0.083,0.043-0.119,0.078s-0.044,0.083-0.078,0.119     c-9.599,9.648-15.547,22.931-15.547,37.59c0,14.659,5.948,27.941,15.547,37.59c0.034,0.035,0.043,0.083,0.078,0.118     s0.083,0.044,0.119,0.078c9.648,9.599,22.931,15.547,37.59,15.547h234.667c14.659,0,27.941-5.948,37.59-15.547     c0.035-0.034,0.083-0.043,0.118-0.078s0.044-0.083,0.078-0.118c9.599-9.648,15.547-22.931,15.547-37.59     c0-14.659-5.948-27.941-15.547-37.59C411.086,229.042,411.077,228.993,411.042,228.958z M167.276,280.716     c-4.159-2.889-9.819-2.673-13.526,1.034s-3.923,9.367-1.034,13.526c-4.259,2.102-8.987,3.391-14.049,3.391     s-9.79-1.289-14.049-3.391c2.889-4.159,2.673-9.819-1.034-13.526s-9.367-3.923-13.526-1.034     c-2.102-4.259-3.391-8.987-3.391-14.049s1.289-9.79,3.391-14.049c1.823,1.266,3.858,2.091,5.984,2.091     c2.729,0,5.458-1.042,7.542-3.125c3.707-3.707,3.923-9.367,1.034-13.526c4.259-2.102,8.987-3.391,14.049-3.391     s9.79,1.289,14.049,3.391c-2.889,4.159-2.673,9.819,1.034,13.526c2.083,2.083,4.813,3.125,7.542,3.125     c2.126,0,4.161-0.826,5.984-2.091c2.102,4.259,3.391,8.987,3.391,14.049S169.378,276.457,167.276,280.716z M330.932,298.667     h-79.569c2.993-10.422,4.637-21.122,4.637-32c0-10.878-1.643-21.578-4.637-32h79.569c-6.764,8.94-10.932,19.945-10.932,32     S324.168,289.727,330.932,298.667z M401.943,280.716c-4.159-2.889-9.819-2.673-13.526,1.034s-3.923,9.367-1.034,13.526     c-4.259,2.102-8.987,3.391-14.049,3.391s-9.79-1.289-14.049-3.391c2.889-4.159,2.673-9.819-1.034-13.526     s-9.367-3.923-13.526-1.034c-2.102-4.259-3.391-8.987-3.391-14.049s1.289-9.79,3.391-14.049c1.823,1.266,3.858,2.091,5.984,2.091     c2.729,0,5.458-1.042,7.542-3.125c3.707-3.707,3.923-9.367,1.034-13.526c4.259-2.102,8.987-3.391,14.049-3.391     s9.79,1.289,14.049,3.391c-2.889,4.159-2.673,9.819,1.034,13.526c2.083,2.083,4.813,3.125,7.542,3.125     c2.126,0,4.161-0.826,5.984-2.091c2.102,4.259,3.391,8.987,3.391,14.049S404.044,276.457,401.943,280.716z"/>
		</g>
	</g>
</g>
<g>
</g>
<g>
</g>
<g>
</g>
<g>
</g>
<g>
</g>
<g>
</g>
<g>
</g>
<g>
</g>
<g>
</g>
<g>
</g>
<g>
</g>
<g>
</g>
<g>
</g>
<g>
</g>
<g>
</g>
</svg>
