<?xml version="1.0" encoding="iso-8859-1"?>
<!-- Generator: Adobe Illustrator 19.0.0, SVG Export Plug-In . SVG Version: 6.00 Build 0)  -->
<svg xmlns="http://www.w3.org/2000/svg" xmlns:xlink="http://www.w3.org/1999/xlink" version="1.1" id="Layer_1" x="0px" y="0px" viewBox="0 0 512 512" style="enable-background:new 0 0 512 512;" xml:space="preserve">
<g>
	<g>
		<g>
			<circle cx="160" cy="288" r="32"/>
			<path d="M469.333,128H362.667v-21.333C362.667,83.135,343.521,64,320,64H192c-23.521,0-42.667,19.135-42.667,42.667v21.874     C66.082,134.069,0,203.371,0,288c0,88.229,71.771,160,160,160h309.333C492.854,448,512,428.865,512,405.333V170.667     C512,147.135,492.854,128,469.333,128z M192,106.667h128V128H192V106.667z M160,405.333     c-64.688,0-117.333-52.635-117.333-117.333S95.313,170.667,160,170.667S277.333,223.302,277.333,288S224.688,405.333,160,405.333     z M330.667,405.333h-21.333c-5.896,0-10.667-4.771-10.667-10.667S303.438,384,309.333,384h21.333     c5.896,0,10.667,4.771,10.667,10.667S336.563,405.333,330.667,405.333z M394.667,405.333h-21.333     c-5.896,0-10.667-4.771-10.667-10.667S367.438,384,373.333,384h21.333c5.896,0,10.667,4.771,10.667,10.667     S400.563,405.333,394.667,405.333z M458.667,405.333h-21.333c-5.896,0-10.667-4.771-10.667-10.667S431.438,384,437.333,384     h21.333c5.896,0,10.667,4.771,10.667,10.667S464.563,405.333,458.667,405.333z M469.333,352c0,5.896-4.771,10.667-10.667,10.667     H309.333c-5.896,0-10.667-4.771-10.667-10.667V245.333c0-5.896,4.771-10.667,10.667-10.667h149.333     c5.896,0,10.667,4.771,10.667,10.667V352z M458.667,192H288c-5.896,0-10.667-4.771-10.667-10.667     c0-5.896,4.771-10.667,10.667-10.667h170.667c5.896,0,10.667,4.771,10.667,10.667C469.333,187.229,464.563,192,458.667,192z"/>
		</g>
	</g>
</g>
<g>
</g>
<g>
</g>
<g>
</g>
<g>
</g>
<g>
</g>
<g>
</g>
<g>
</g>
<g>
</g>
<g>
</g>
<g>
</g>
<g>
</g>
<g>
</g>
<g>
</g>
<g>
</g>
<g>
</g>
</svg>
