<?xml version="1.0" encoding="iso-8859-1"?>
<!-- Generator: Adobe Illustrator 19.0.0, SVG Export Plug-In . SVG Version: 6.00 Build 0)  -->
<svg xmlns="http://www.w3.org/2000/svg" xmlns:xlink="http://www.w3.org/1999/xlink" version="1.1" id="Layer_1" x="0px" y="0px" viewBox="0 0 512 512" style="enable-background:new 0 0 512 512;" xml:space="preserve">
<g>
	<g>
		<g>
			<circle cx="106.667" cy="341.333" r="21.333"/>
			<path d="M469.333,128H362.667v-21.333C362.667,83.135,343.521,64,320,64H192c-23.521,0-42.667,19.135-42.667,42.667V128H42.667     C19.146,128,0,147.135,0,170.667v234.667C0,428.865,19.146,448,42.667,448h426.667C492.854,448,512,428.865,512,405.333V170.667     C512,147.135,492.854,128,469.333,128z M416,170.667c17.646,0,32,14.354,32,32c0,17.646-14.354,32-32,32     c-17.646,0-32-14.354-32-32C384,185.021,398.354,170.667,416,170.667z M192,106.667h128V128H192V106.667z M149.333,181.333     c0-5.896,4.771-10.667,10.667-10.667h192c5.896,0,10.667,4.771,10.667,10.667V224c0,5.896-4.771,10.667-10.667,10.667H160     c-5.896,0-10.667-4.771-10.667-10.667V181.333z M277.333,277.333c0,11.76-9.563,21.333-21.333,21.333     s-21.333-9.573-21.333-21.333c0-11.76,9.563-21.333,21.333-21.333S277.333,265.573,277.333,277.333z M96,170.667     c17.646,0,32,14.354,32,32c0,17.646-14.354,32-32,32s-32-14.354-32-32C64,185.021,78.354,170.667,96,170.667z M106.667,405.333     c-35.292,0-64-28.708-64-64c0-35.292,28.708-64,64-64c35.292,0,64,28.708,64,64C170.667,376.625,141.958,405.333,106.667,405.333     z M170.667,277.333c0-11.76,9.563-21.333,21.333-21.333s21.333,9.573,21.333,21.333c0,11.76-9.563,21.333-21.333,21.333     S170.667,289.094,170.667,277.333z M320,394.667c0,5.896-4.771,10.667-10.667,10.667H202.667     c-5.896,0-10.667-4.771-10.667-10.667v-64c0-5.896,4.771-10.667,10.667-10.667h106.667c5.896,0,10.667,4.771,10.667,10.667     V394.667z M320,298.667c-11.771,0-21.333-9.573-21.333-21.333c0-11.76,9.563-21.333,21.333-21.333s21.333,9.573,21.333,21.333     C341.333,289.094,331.771,298.667,320,298.667z M405.333,405.333c-35.292,0-64-28.708-64-64c0-35.292,28.708-64,64-64     c35.292,0,64,28.708,64,64C469.333,376.625,440.625,405.333,405.333,405.333z"/>
			<circle cx="405.333" cy="341.333" r="21.333"/>
		</g>
	</g>
</g>
<g>
</g>
<g>
</g>
<g>
</g>
<g>
</g>
<g>
</g>
<g>
</g>
<g>
</g>
<g>
</g>
<g>
</g>
<g>
</g>
<g>
</g>
<g>
</g>
<g>
</g>
<g>
</g>
<g>
</g>
</svg>
