<?xml version="1.0" encoding="iso-8859-1"?>
<!-- Generator: Adobe Illustrator 19.0.0, SVG Export Plug-In . SVG Version: 6.00 Build 0)  -->
<svg xmlns="http://www.w3.org/2000/svg" xmlns:xlink="http://www.w3.org/1999/xlink" version="1.1" id="Layer_1" x="0px" y="0px" viewBox="0 0 469.333 469.333" style="enable-background:new 0 0 469.333 469.333;" xml:space="preserve">
<g>
	<g>
		<g>
			<path d="M298.667,192.052c0.021-3.469-1.646-6.719-4.469-8.729l-74.667-53.333c-3.26-2.333-7.542-2.635-11.083-0.802     c-3.552,1.823-5.781,5.479-5.781,9.479v65.917l-15.219-10.656c-4.823-3.385-11.469-2.198-14.854,2.625     c-3.375,4.823-2.208,11.479,2.625,14.854l27.448,19.219v8.083l-27.448,19.219c-4.833,3.375-6,10.031-2.625,14.854     c3.385,4.833,10.063,6,14.854,2.625l15.219-10.656v65.917c0,4,2.229,7.656,5.781,9.479c1.542,0.802,3.219,1.188,4.885,1.188     c2.188,0,4.354-0.667,6.198-1.99l74.667-53.333c2.823-2.01,4.49-5.26,4.469-8.729c-0.021-3.458-1.708-6.698-4.552-8.688     l-48.469-33.927l48.469-33.927C296.958,198.75,298.646,195.51,298.667,192.052z M269.521,277.417L224,309.937v-60.115     l3.052-2.135L269.521,277.417z M227.052,221.646L224,219.51v-60.115l45.521,32.521L227.052,221.646z"/>
			<path d="M234.667,0C105.271,0,0,114.844,0,256v117.333C0,379.224,4.776,384,10.667,384h32v42.667     c0,23.531,19.135,42.667,42.667,42.667h32c5.896,0,10.667-4.771,10.667-10.667v-192c0-5.896-4.771-10.667-10.667-10.667h-32     c-23.531,0-42.667,19.135-42.667,42.667V256c0-117.635,86.135-213.333,192-213.333s192,95.698,192,213.333v42.667     C426.667,275.135,407.531,256,384,256h-32c-5.896,0-10.667,4.771-10.667,10.667v192c0,5.896,4.771,10.667,10.667,10.667h32     c23.531,0,42.667-19.135,42.667-42.667V384h32c5.891,0,10.667-4.776,10.667-10.667V256C469.333,114.844,364.063,0,234.667,0z"/>
		</g>
	</g>
</g>
<g>
</g>
<g>
</g>
<g>
</g>
<g>
</g>
<g>
</g>
<g>
</g>
<g>
</g>
<g>
</g>
<g>
</g>
<g>
</g>
<g>
</g>
<g>
</g>
<g>
</g>
<g>
</g>
<g>
</g>
</svg>
