<?xml version="1.0" encoding="iso-8859-1"?>
<!-- Generator: Adobe Illustrator 19.0.0, SVG Export Plug-In . SVG Version: 6.00 Build 0)  -->
<svg xmlns="http://www.w3.org/2000/svg" xmlns:xlink="http://www.w3.org/1999/xlink" version="1.1" id="Layer_1" x="0px" y="0px" viewBox="0 0 512 512" style="enable-background:new 0 0 512 512;" xml:space="preserve">
<g>
	<g>
		<g>
			<path d="M320,320.052c0.021-3.469-1.646-6.719-4.458-8.729l-74.667-53.333c-3.292-2.344-7.521-2.646-11.083-0.802     c-3.563,1.823-5.792,5.479-5.792,9.479v65.917l-15.208-10.656c-4.833-3.344-11.479-2.24-14.854,2.625     c-3.396,4.823-2.208,11.479,2.604,14.854L224,358.625v8.083l-27.458,19.219c-4.813,3.375-6,10.031-2.604,14.854     c3.375,4.844,10.021,5.979,14.854,2.625L224,392.75v65.917c0,4,2.229,7.656,5.792,9.479c1.542,0.802,3.208,1.188,4.875,1.188     c2.188,0,4.354-0.667,6.208-1.99l74.667-53.333c2.813-2.01,4.479-5.26,4.458-8.729c-0.021-3.458-1.708-6.698-4.542-8.688     l-48.479-33.927l48.479-33.927C318.292,326.75,319.979,323.51,320,320.052z M290.854,405.417l-45.521,32.521v-60.115l3.042-2.135     L290.854,405.417z M248.375,349.646l-3.042-2.135v-60.115l45.521,32.521L248.375,349.646z"/>
			<path d="M256,21.333c-141.167,0-256,114.844-256,256v85.333c0,35.208,8.792,70.156,25.438,101.063     c1.875,3.448,5.479,5.604,9.396,5.604h52.465c4.418,12.389,16.147,21.333,30.035,21.333c17.646,0,32-14.354,32-32v-192     c0-17.646-14.354-32-32-32c-13.888,0-25.617,8.944-30.035,21.333H34.833c-3.917,0-7.521,2.156-9.396,5.604     c-1.406,2.611-2.423,5.402-3.716,8.069c1.88-57.831,24.72-110.326,61.24-150.296l22.185,22.185     c4.167,4.167,10.917,4.167,15.083,0c36.271-36.26,84.479-56.24,135.771-56.24s99.5,19.979,135.771,56.24     c2.083,2.083,4.813,3.125,7.542,3.125c2.729,0,5.458-1.042,7.542-3.125l22.185-22.185c36.52,39.97,59.359,92.465,61.24,150.296     c-1.293-2.667-2.31-5.458-3.716-8.069c-1.875-3.448-5.479-5.604-9.396-5.604h-52.465c-4.418-12.389-16.147-21.333-30.035-21.333     c-17.646,0-32,14.354-32,32v192c0,17.646,14.354,32,32,32c13.888,0,25.617-8.944,30.035-21.333h52.465     c3.917,0,7.521-2.156,9.396-5.604C503.208,432.823,512,397.875,512,362.667v-85.333C512,136.177,397.167,21.333,256,21.333z"/>
		</g>
	</g>
</g>
<g>
</g>
<g>
</g>
<g>
</g>
<g>
</g>
<g>
</g>
<g>
</g>
<g>
</g>
<g>
</g>
<g>
</g>
<g>
</g>
<g>
</g>
<g>
</g>
<g>
</g>
<g>
</g>
<g>
</g>
</svg>
