<?xml version="1.0" encoding="iso-8859-1"?>
<!-- Generator: Adobe Illustrator 19.0.0, SVG Export Plug-In . SVG Version: 6.00 Build 0)  -->
<svg xmlns="http://www.w3.org/2000/svg" xmlns:xlink="http://www.w3.org/1999/xlink" version="1.1" id="Layer_1" x="0px" y="0px" viewBox="0 0 512 512" style="enable-background:new 0 0 512 512;" xml:space="preserve">
<g>
	<g>
		<g>
			<path d="M192,0C109.656,0,42.667,67,42.667,149.333c0,23.521,19.135,42.667,42.667,42.667S128,172.854,128,149.333     c0-19.431-13.138-35.693-30.947-40.824c8.957-19.379,22.746-36.363,41.003-48.383c80.371-52.911,160.611,22.201,160.611,121.207     c0,158.813-110.052,288-245.333,288c-5.891,0-10.667,4.775-10.667,10.667v21.333c0,5.891,4.776,10.667,10.667,10.667     c158.802,0,288-148.333,288-330.667C341.333,81.354,274.344,0,192,0z"/>
			<circle cx="426.667" cy="170.667" r="42.667"/>
			<circle cx="426.667" cy="341.333" r="42.667"/>
		</g>
	</g>
</g>
<g>
</g>
<g>
</g>
<g>
</g>
<g>
</g>
<g>
</g>
<g>
</g>
<g>
</g>
<g>
</g>
<g>
</g>
<g>
</g>
<g>
</g>
<g>
</g>
<g>
</g>
<g>
</g>
<g>
</g>
</svg>
