<?xml version="1.0" encoding="iso-8859-1"?>
<!-- Generator: Adobe Illustrator 19.0.0, SVG Export Plug-In . SVG Version: 6.00 Build 0)  -->
<svg xmlns="http://www.w3.org/2000/svg" xmlns:xlink="http://www.w3.org/1999/xlink" version="1.1" id="Layer_1" x="0px" y="0px" viewBox="0 0 512 512" style="enable-background:new 0 0 512 512;" xml:space="preserve">
<g>
	<g>
		<path d="M256,0C114.844,0,0,114.844,0,256s114.844,256,256,256s256-114.844,256-256S397.156,0,256,0z M298.667,352.003    c0,4.042-2.281,7.729-5.896,9.542c-3.625,1.813-7.948,1.396-11.167-1l-128-96c-2.688-2.021-4.271-5.188-4.271-8.542    c0-3.354,1.583-6.521,4.271-8.542l128-96c1.875-1.396,4.135-2.125,6.396-2.125c1.625,0,3.26,0.375,4.771,1.125    c3.615,1.813,5.896,5.5,5.896,9.542v2.661l-113.063,84.797c-2.688,2.021-4.271,5.188-4.271,8.542c0,3.354,1.583,6.521,4.271,8.542    l113.063,84.797V352.003z M362.667,352.003c0,4.042-2.281,7.729-5.896,9.542c-3.625,1.813-7.948,1.396-11.167-1l-128-96    c-2.688-2.021-4.271-5.188-4.271-8.542c0-3.354,1.583-6.521,4.271-8.542l128-96c1.875-1.396,4.135-2.125,6.396-2.125    c1.625,0,3.26,0.375,4.771,1.125c3.615,1.813,5.896,5.5,5.896,9.542V352.003z"/>
	</g>
</g>
<g>
</g>
<g>
</g>
<g>
</g>
<g>
</g>
<g>
</g>
<g>
</g>
<g>
</g>
<g>
</g>
<g>
</g>
<g>
</g>
<g>
</g>
<g>
</g>
<g>
</g>
<g>
</g>
<g>
</g>
</svg>
