<?xml version="1.0" encoding="iso-8859-1"?>
<!-- Generator: Adobe Illustrator 19.0.0, SVG Export Plug-In . SVG Version: 6.00 Build 0)  -->
<svg xmlns="http://www.w3.org/2000/svg" xmlns:xlink="http://www.w3.org/1999/xlink" version="1.1" id="Layer_1" x="0px" y="0px" viewBox="0 0 512 512" style="enable-background:new 0 0 512 512;" xml:space="preserve">
<g>
	<g>
		<g>
			<circle cx="106.645" cy="384" r="21.333"/>
			<path d="M507.725,280.385c-0.065-0.168-0.016-0.354-0.09-0.521L415.698,74.229C407.115,55.052,388,42.667,367,42.667H145     c-21,0-40.115,12.385-48.698,31.563L4.365,279.865c-0.074,0.167-0.025,0.353-0.09,0.521C1.613,285.948,0,292.099,0,298.667v128     c0,23.531,19.135,42.667,42.667,42.667h426.667c23.531,0,42.667-19.135,42.667-42.667v-128     C512,292.099,510.387,285.948,507.725,280.385z M106.646,426.688c-23.531,0-42.677-19.146-42.677-42.688     c0-2.161,0.327-4.236,0.638-6.311c0.038-0.313-0.078-0.619-0.013-0.928c0.025-0.118,0.111-0.208,0.139-0.326     c0.098-0.54,0.171-1.085,0.288-1.619c0.001-0.009-0.001-0.016,0-0.025l5.438-25.5C74.073,332.323,89.302,320,106.656,320     c17.375,0,32.604,12.333,36.219,29.323l4.781,22.583c0.802,1.49,1.26,3.208,1.26,5.021c0,0.328-0.173,0.596-0.206,0.915     c0.297,2.027,0.622,4.049,0.622,6.158C149.333,407.542,130.188,426.688,106.646,426.688z M234.667,426.688     c-23.542,0-42.688-19.146-42.688-42.688c0-2.184,0.327-4.28,0.645-6.376c0.038-0.303-0.074-0.603-0.009-0.905     c0.025-0.112,0.104-0.197,0.132-0.307c0.099-0.546,0.177-1.09,0.296-1.629c0,0-0.001-0.008,0-0.012l5.438-25.479     C202.094,332.323,217.323,320,234.677,320c17.375,0,32.594,12.333,36.208,29.323l4.781,22.573c0.802,1.49,1.26,3.208,1.26,5.021     c0,0.327-0.167,0.595-0.197,0.913c0.298,2.031,0.624,4.057,0.624,6.171C277.354,407.542,258.208,426.688,234.667,426.688z      M341.333,384c-11.76,0-21.333-9.573-21.333-21.333s9.573-21.333,21.333-21.333c11.76,0,21.333,9.573,21.333,21.333     S353.094,384,341.333,384z M426.667,384c-11.76,0-21.333-9.573-21.333-21.333s9.573-21.333,21.333-21.333     S448,350.906,448,362.667S438.427,384,426.667,384z M58.678,256L135.26,91.646c1.708-3.833,5.531-6.313,9.729-6.313H367.01     c4.198,0,8.021,2.479,9.813,6.458L453.323,256H58.678z"/>
			<path d="M255.625,380.542c-0.029-0.197,0.044-0.383,0.026-0.579c-0.01-0.074-0.008-0.141-0.02-0.216     c-0.048-0.172-0.164-0.298-0.204-0.475c-2.219-9.792-10.75-16.625-20.76-16.625c-9.885,0-18.625,7.021-20.792,16.677     c-0.022,0.098-0.086,0.172-0.111,0.268c-0.009,0.063,0.017,0.117,0.006,0.18c-0.016,0.098-0.079,0.185-0.098,0.281     c-0.198,1.372-0.361,2.727-0.361,3.948c0,11.771,9.583,21.354,21.354,21.354c11.771,0,21.354-9.583,21.354-21.354     c0-0.97-0.16-2.066-0.286-3.137C255.714,380.749,255.642,380.658,255.625,380.542z"/>
		</g>
	</g>
</g>
<g>
</g>
<g>
</g>
<g>
</g>
<g>
</g>
<g>
</g>
<g>
</g>
<g>
</g>
<g>
</g>
<g>
</g>
<g>
</g>
<g>
</g>
<g>
</g>
<g>
</g>
<g>
</g>
<g>
</g>
</svg>
