<?xml version="1.0" encoding="iso-8859-1"?>
<!-- Generator: Adobe Illustrator 19.0.0, SVG Export Plug-In . SVG Version: 6.00 Build 0)  -->
<svg xmlns="http://www.w3.org/2000/svg" xmlns:xlink="http://www.w3.org/1999/xlink" version="1.1" id="Layer_1" x="0px" y="0px" viewBox="0 0 469.333 469.333" style="enable-background:new 0 0 469.333 469.333;" xml:space="preserve">
<g>
	<g>
		<g>
			<polygon points="170.667,211.41 277.333,193.632 277.333,172.583 170.667,190.375    "/>
			<path d="M384,42.667H42.667C19.135,42.667,0,61.802,0,85.333v341.333c0,23.531,19.135,42.667,42.667,42.667H384     c23.531,0,42.667-19.135,42.667-42.667V85.333C426.667,61.802,407.531,42.667,384,42.667z M298.667,320     c0,12.354-13.458,21.333-32,21.333s-32-8.979-32-21.333c0-12.354,13.458-21.333,32-21.333c3.819,0,7.352,0.465,10.667,1.178     v-84.589l-106.667,17.779v108.298c0,12.354-13.458,21.333-32,21.333s-32-8.979-32-21.333s13.458-21.333,32-21.333     c3.819,0,7.352,0.465,10.667,1.178V181.333c0-5.208,3.771-9.667,8.917-10.521l128-21.333c3.104-0.542,6.26,0.354,8.646,2.375     c2.396,2.042,3.771,5,3.771,8.146V320z"/>
			<path d="M426.667,0H85.333C69.608,0,56,8.642,48.6,21.333h356.733C428.865,21.333,448,40.469,448,64v356.733     c12.691-7.4,21.333-21.008,21.333-36.733V42.667C469.333,19.135,450.198,0,426.667,0z"/>
		</g>
	</g>
</g>
<g>
</g>
<g>
</g>
<g>
</g>
<g>
</g>
<g>
</g>
<g>
</g>
<g>
</g>
<g>
</g>
<g>
</g>
<g>
</g>
<g>
</g>
<g>
</g>
<g>
</g>
<g>
</g>
<g>
</g>
</svg>
