<?xml version="1.0" encoding="iso-8859-1"?>
<!-- Generator: Adobe Illustrator 19.0.0, SVG Export Plug-In . SVG Version: 6.00 Build 0)  -->
<svg version="1.1" id="Capa_1" xmlns="http://www.w3.org/2000/svg" xmlns:xlink="http://www.w3.org/1999/xlink" x="0px" y="0px"
	 viewBox="0 0 483.788 483.788" style="enable-background:new 0 0 483.788 483.788;" xml:space="preserve">
<path style="fill:#1185E0;" d="M448.784,256h-33.959V15.673C414.824,6.792,408.033,0,399.151,0c-8.882,0-15.673,6.792-15.673,15.673
	v27.167H100.31V15.673C100.31,6.792,93.518,0,84.637,0S68.963,6.792,68.963,15.673V256H35.004c-8.882,0-15.673,6.792-15.673,15.673
	c0,8.882,6.792,15.673,15.673,15.673h45.453l131.135,79.412L65.306,454.531c-7.314,4.702-9.927,14.106-5.224,21.42
	c3.135,4.702,8.359,7.837,13.584,7.837c2.612,0,5.747-0.522,7.837-2.09l160.392-96.653l160.392,96.653
	c2.612,1.567,5.224,2.09,7.837,2.09c5.224,0,10.449-2.612,13.584-7.837c4.702-7.314,2.09-17.241-5.224-21.42l-146.286-87.771
	l131.135-79.412h45.453c8.882,0,15.673-6.792,15.673-15.673C464.457,262.792,457.665,256,448.784,256z M241.894,348.473
	l-100.833-61.127h201.665L241.894,348.473z M100.31,256V74.188h283.167V256L100.31,256L100.31,256z"/>
<path style="fill:#4DCFE0;" d="M212.114,228.31c-3.135,0-6.269-1.045-9.404-3.135c-4.702-3.657-7.314-9.404-6.269-15.151
	l4.18-25.078l-18.286-17.763c-4.18-4.18-5.747-10.449-4.18-16.196c2.09-5.747,6.792-9.927,12.539-10.449l24.555-3.657l11.494-22.988
	c2.612-5.224,7.837-8.882,14.106-8.882c5.747,0,11.494,3.135,14.106,8.882l11.494,22.988l24.555,3.657
	c5.747,1.045,10.971,5.224,12.539,10.449c2.09,5.747,0.522,12.016-4.18,16.196l-16.718,17.241l4.18,25.078
	c1.045,5.747-1.567,12.016-6.269,15.151c-4.702,3.657-11.494,4.18-16.718,1.045l-21.943-10.971l-22.465,12.016
	C217.339,227.788,214.727,228.31,212.114,228.31z M227.265,166.661l1.567,1.045c3.657,3.657,5.224,8.882,4.702,14.106l-0.522,2.09
	l1.567-1.045c4.702-2.612,9.927-2.612,14.629,0l1.567,1.045l-0.522-2.09c-1.045-5.224,1.045-10.449,4.702-14.106l1.567-1.045h-1.567
	c-5.224-0.522-9.404-3.657-12.016-8.359l-1.045-2.612l-1.045,2.09c-2.09,4.702-6.792,7.837-12.016,8.359L227.265,166.661z"/>
<g>
</g>
<g>
</g>
<g>
</g>
<g>
</g>
<g>
</g>
<g>
</g>
<g>
</g>
<g>
</g>
<g>
</g>
<g>
</g>
<g>
</g>
<g>
</g>
<g>
</g>
<g>
</g>
<g>
</g>
</svg>
