<?xml version="1.0"?>
<svg xmlns="http://www.w3.org/2000/svg" xmlns:xlink="http://www.w3.org/1999/xlink" version="1.1" id="Layer_1" x="0px" y="0px" viewBox="0 0 495 495" style="enable-background:new 0 0 495 495;" xml:space="preserve" width="512px" height="512px" class=""><g><g>
	<polygon style="fill:#6D6D6D" points="247.5,0 247.5,40 455,40 455,455 247.5,455 247.5,495 495,495 495,0  " data-original="#1A6FB0" class="active-path" data-old_color="#1A6FB0"/>
	<polygon style="fill:#BFBFBF" points="40,455 40,40 247.5,40 247.5,0 0,0 0,495 247.5,495 247.5,455  " data-original="#1E81CE" class="" data-old_color="#1E81CE"/>
	<path style="fill:#BFBFBF" d="M205.767,405h65.266V247.413h43.798c0,0,4.104-25.428,6.103-53.235h-49.647v-36.264   c0-5.416,7.109-12.696,14.153-12.696h35.564V90h-48.366c-68.478,0-66.872,53.082-66.872,61.009v43.356h-31.771v53.029h31.771V405z" data-original="#1E81CE" class="" data-old_color="#1E81CE"/>
</g></g> </svg>
